<?xml version="1.0" encoding="utf-8"?>
<svg xmlns="http://www.w3.org/2000/svg" xmlns:xlink="http://www.w3.org/1999/xlink" width="500" height="300" viewBox="0 0 2000 1200">
<defs>
  <clipPath id="clip360">
    <rect x="0" y="0" width="2000" height="1200"/>
  </clipPath>
</defs>
<path clip-path="url(#clip360)" d="
M0 1200 L2000 1200 L2000 0 L0 0  Z
  " fill="#ffffff" fill-rule="evenodd" fill-opacity="1"/>
<defs>
  <clipPath id="clip361">
    <rect x="400" y="0" width="1401" height="1200"/>
  </clipPath>
</defs>
<path clip-path="url(#clip360)" d="
M137.853 1093.9 L1952.76 1093.9 L1952.76 117.424 L137.853 117.424  Z
  " fill="#ffffff" fill-rule="evenodd" fill-opacity="1"/>
<defs>
  <clipPath id="clip362">
    <rect x="137" y="117" width="1816" height="977"/>
  </clipPath>
</defs>
<polyline clip-path="url(#clip362)" style="stroke:#000000; stroke-width:2; stroke-opacity:0.1; fill:none" points="
  237.676,1093.9 237.676,117.424 
  "/>
<polyline clip-path="url(#clip362)" style="stroke:#000000; stroke-width:2; stroke-opacity:0.1; fill:none" points="
  490.06,1093.9 490.06,117.424 
  "/>
<polyline clip-path="url(#clip362)" style="stroke:#000000; stroke-width:2; stroke-opacity:0.1; fill:none" points="
  742.444,1093.9 742.444,117.424 
  "/>
<polyline clip-path="url(#clip362)" style="stroke:#000000; stroke-width:2; stroke-opacity:0.1; fill:none" points="
  994.828,1093.9 994.828,117.424 
  "/>
<polyline clip-path="url(#clip362)" style="stroke:#000000; stroke-width:2; stroke-opacity:0.1; fill:none" points="
  1247.21,1093.9 1247.21,117.424 
  "/>
<polyline clip-path="url(#clip362)" style="stroke:#000000; stroke-width:2; stroke-opacity:0.1; fill:none" points="
  1499.6,1093.9 1499.6,117.424 
  "/>
<polyline clip-path="url(#clip362)" style="stroke:#000000; stroke-width:2; stroke-opacity:0.1; fill:none" points="
  1751.98,1093.9 1751.98,117.424 
  "/>
<polyline clip-path="url(#clip360)" style="stroke:#000000; stroke-width:4; stroke-opacity:1; fill:none" points="
  137.853,1093.9 1952.76,1093.9 
  "/>
<polyline clip-path="url(#clip360)" style="stroke:#000000; stroke-width:4; stroke-opacity:1; fill:none" points="
  237.676,1093.9 237.676,1082.19 
  "/>
<polyline clip-path="url(#clip360)" style="stroke:#000000; stroke-width:4; stroke-opacity:1; fill:none" points="
  490.06,1093.9 490.06,1082.19 
  "/>
<polyline clip-path="url(#clip360)" style="stroke:#000000; stroke-width:4; stroke-opacity:1; fill:none" points="
  742.444,1093.9 742.444,1082.19 
  "/>
<polyline clip-path="url(#clip360)" style="stroke:#000000; stroke-width:4; stroke-opacity:1; fill:none" points="
  994.828,1093.9 994.828,1082.19 
  "/>
<polyline clip-path="url(#clip360)" style="stroke:#000000; stroke-width:4; stroke-opacity:1; fill:none" points="
  1247.21,1093.9 1247.21,1082.19 
  "/>
<polyline clip-path="url(#clip360)" style="stroke:#000000; stroke-width:4; stroke-opacity:1; fill:none" points="
  1499.6,1093.9 1499.6,1082.19 
  "/>
<polyline clip-path="url(#clip360)" style="stroke:#000000; stroke-width:4; stroke-opacity:1; fill:none" points="
  1751.98,1093.9 1751.98,1082.19 
  "/>
<path clip-path="url(#clip360)" d="M 0 0 M184.702 1134.55 L214.377 1134.55 L214.377 1138.48 L184.702 1138.48 L184.702 1134.55 Z" fill="#000000" fill-rule="evenodd" fill-opacity="1" /><path clip-path="url(#clip360)" d="M 0 0 M223.289 1116.82 L245.511 1116.82 L245.511 1118.81 L232.965 1151.38 L228.081 1151.38 L239.886 1120.75 L223.289 1120.75 L223.289 1116.82 Z" fill="#000000" fill-rule="evenodd" fill-opacity="1" /><path clip-path="url(#clip360)" d="M 0 0 M254.632 1145.5 L259.516 1145.5 L259.516 1151.38 L254.632 1151.38 L254.632 1145.5 Z" fill="#000000" fill-rule="evenodd" fill-opacity="1" /><path clip-path="url(#clip360)" d="M 0 0 M269.747 1116.82 L288.104 1116.82 L288.104 1120.75 L274.03 1120.75 L274.03 1129.22 Q275.048 1128.88 276.067 1128.71 Q277.085 1128.53 278.104 1128.53 Q283.891 1128.53 287.27 1131.7 Q290.65 1134.87 290.65 1140.29 Q290.65 1145.87 287.178 1148.97 Q283.706 1152.05 277.386 1152.05 Q275.21 1152.05 272.942 1151.68 Q270.696 1151.31 268.289 1150.57 L268.289 1145.87 Q270.372 1147 272.595 1147.56 Q274.817 1148.11 277.294 1148.11 Q281.298 1148.11 283.636 1146.01 Q285.974 1143.9 285.974 1140.29 Q285.974 1136.68 283.636 1134.57 Q281.298 1132.46 277.294 1132.46 Q275.419 1132.46 273.544 1132.88 Q271.692 1133.3 269.747 1134.18 L269.747 1116.82 Z" fill="#000000" fill-rule="evenodd" fill-opacity="1" /><path clip-path="url(#clip360)" d="M 0 0 M436.588 1134.55 L466.264 1134.55 L466.264 1138.48 L436.588 1138.48 L436.588 1134.55 Z" fill="#000000" fill-rule="evenodd" fill-opacity="1" /><path clip-path="url(#clip360)" d="M 0 0 M476.402 1116.82 L494.759 1116.82 L494.759 1120.75 L480.685 1120.75 L480.685 1129.22 Q481.703 1128.88 482.722 1128.71 Q483.74 1128.53 484.759 1128.53 Q490.546 1128.53 493.925 1131.7 Q497.305 1134.87 497.305 1140.29 Q497.305 1145.87 493.833 1148.97 Q490.361 1152.05 484.041 1152.05 Q481.865 1152.05 479.597 1151.68 Q477.352 1151.31 474.944 1150.57 L474.944 1145.87 Q477.027 1147 479.25 1147.56 Q481.472 1148.11 483.949 1148.11 Q487.953 1148.11 490.291 1146.01 Q492.629 1143.9 492.629 1140.29 Q492.629 1136.68 490.291 1134.57 Q487.953 1132.46 483.949 1132.46 Q482.074 1132.46 480.199 1132.88 Q478.347 1133.3 476.402 1134.18 L476.402 1116.82 Z" fill="#000000" fill-rule="evenodd" fill-opacity="1" /><path clip-path="url(#clip360)" d="M 0 0 M506.518 1145.5 L511.402 1145.5 L511.402 1151.38 L506.518 1151.38 L506.518 1145.5 Z" fill="#000000" fill-rule="evenodd" fill-opacity="1" /><path clip-path="url(#clip360)" d="M 0 0 M531.587 1119.89 Q527.976 1119.89 526.148 1123.46 Q524.342 1127 524.342 1134.13 Q524.342 1141.24 526.148 1144.8 Q527.976 1148.34 531.587 1148.34 Q535.222 1148.34 537.027 1144.8 Q538.856 1141.24 538.856 1134.13 Q538.856 1127 537.027 1123.46 Q535.222 1119.89 531.587 1119.89 M531.587 1116.19 Q537.397 1116.19 540.453 1120.8 Q543.532 1125.38 543.532 1134.13 Q543.532 1142.86 540.453 1147.46 Q537.397 1152.05 531.587 1152.05 Q525.777 1152.05 522.698 1147.46 Q519.643 1142.86 519.643 1134.13 Q519.643 1125.38 522.698 1120.8 Q525.777 1116.19 531.587 1116.19 Z" fill="#000000" fill-rule="evenodd" fill-opacity="1" /><path clip-path="url(#clip360)" d="M 0 0 M689.469 1134.55 L719.145 1134.55 L719.145 1138.48 L689.469 1138.48 L689.469 1134.55 Z" fill="#000000" fill-rule="evenodd" fill-opacity="1" /><path clip-path="url(#clip360)" d="M 0 0 M733.266 1147.44 L749.585 1147.44 L749.585 1151.38 L727.641 1151.38 L727.641 1147.44 Q730.303 1144.69 734.886 1140.06 Q739.492 1135.4 740.673 1134.06 Q742.918 1131.54 743.798 1129.8 Q744.701 1128.04 744.701 1126.35 Q744.701 1123.6 742.756 1121.86 Q740.835 1120.13 737.733 1120.13 Q735.534 1120.13 733.08 1120.89 Q730.65 1121.65 727.872 1123.2 L727.872 1118.48 Q730.696 1117.35 733.15 1116.77 Q735.603 1116.19 737.64 1116.19 Q743.011 1116.19 746.205 1118.88 Q749.4 1121.56 749.4 1126.05 Q749.4 1128.18 748.59 1130.1 Q747.802 1132 745.696 1134.59 Q745.117 1135.26 742.015 1138.48 Q738.914 1141.68 733.266 1147.44 Z" fill="#000000" fill-rule="evenodd" fill-opacity="1" /><path clip-path="url(#clip360)" d="M 0 0 M759.4 1145.5 L764.284 1145.5 L764.284 1151.38 L759.4 1151.38 L759.4 1145.5 Z" fill="#000000" fill-rule="evenodd" fill-opacity="1" /><path clip-path="url(#clip360)" d="M 0 0 M774.515 1116.82 L792.872 1116.82 L792.872 1120.75 L778.798 1120.75 L778.798 1129.22 Q779.816 1128.88 780.835 1128.71 Q781.853 1128.53 782.872 1128.53 Q788.659 1128.53 792.038 1131.7 Q795.418 1134.87 795.418 1140.29 Q795.418 1145.87 791.946 1148.97 Q788.474 1152.05 782.154 1152.05 Q779.978 1152.05 777.71 1151.68 Q775.464 1151.31 773.057 1150.57 L773.057 1145.87 Q775.14 1147 777.362 1147.56 Q779.585 1148.11 782.062 1148.11 Q786.066 1148.11 788.404 1146.01 Q790.742 1143.9 790.742 1140.29 Q790.742 1136.68 788.404 1134.57 Q786.066 1132.46 782.062 1132.46 Q780.187 1132.46 778.312 1132.88 Q776.46 1133.3 774.515 1134.18 L774.515 1116.82 Z" fill="#000000" fill-rule="evenodd" fill-opacity="1" /><path clip-path="url(#clip360)" d="M 0 0 M972.212 1119.89 Q968.601 1119.89 966.772 1123.46 Q964.967 1127 964.967 1134.13 Q964.967 1141.24 966.772 1144.8 Q968.601 1148.34 972.212 1148.34 Q975.846 1148.34 977.652 1144.8 Q979.48 1141.24 979.48 1134.13 Q979.48 1127 977.652 1123.46 Q975.846 1119.89 972.212 1119.89 M972.212 1116.19 Q978.022 1116.19 981.078 1120.8 Q984.156 1125.38 984.156 1134.13 Q984.156 1142.86 981.078 1147.46 Q978.022 1152.05 972.212 1152.05 Q966.402 1152.05 963.323 1147.46 Q960.268 1142.86 960.268 1134.13 Q960.268 1125.38 963.323 1120.8 Q966.402 1116.19 972.212 1116.19 Z" fill="#000000" fill-rule="evenodd" fill-opacity="1" /><path clip-path="url(#clip360)" d="M 0 0 M992.374 1145.5 L997.258 1145.5 L997.258 1151.38 L992.374 1151.38 L992.374 1145.5 Z" fill="#000000" fill-rule="evenodd" fill-opacity="1" /><path clip-path="url(#clip360)" d="M 0 0 M1017.44 1119.89 Q1013.83 1119.89 1012 1123.46 Q1010.2 1127 1010.2 1134.13 Q1010.2 1141.24 1012 1144.8 Q1013.83 1148.34 1017.44 1148.34 Q1021.08 1148.34 1022.88 1144.8 Q1024.71 1141.24 1024.71 1134.13 Q1024.71 1127 1022.88 1123.46 Q1021.08 1119.89 1017.44 1119.89 M1017.44 1116.19 Q1023.25 1116.19 1026.31 1120.8 Q1029.39 1125.38 1029.39 1134.13 Q1029.39 1142.86 1026.31 1147.46 Q1023.25 1152.05 1017.44 1152.05 Q1011.63 1152.05 1008.55 1147.46 Q1005.5 1142.86 1005.5 1134.13 Q1005.5 1125.38 1008.55 1120.8 Q1011.63 1116.19 1017.44 1116.19 Z" fill="#000000" fill-rule="evenodd" fill-opacity="1" /><path clip-path="url(#clip360)" d="M 0 0 M1218.95 1147.44 L1235.27 1147.44 L1235.27 1151.38 L1213.32 1151.38 L1213.32 1147.44 Q1215.98 1144.69 1220.57 1140.06 Q1225.17 1135.4 1226.36 1134.06 Q1228.6 1131.54 1229.48 1129.8 Q1230.38 1128.04 1230.38 1126.35 Q1230.38 1123.6 1228.44 1121.86 Q1226.52 1120.13 1223.42 1120.13 Q1221.22 1120.13 1218.76 1120.89 Q1216.33 1121.65 1213.55 1123.2 L1213.55 1118.48 Q1216.38 1117.35 1218.83 1116.77 Q1221.29 1116.19 1223.32 1116.19 Q1228.69 1116.19 1231.89 1118.88 Q1235.08 1121.56 1235.08 1126.05 Q1235.08 1128.18 1234.27 1130.1 Q1233.48 1132 1231.38 1134.59 Q1230.8 1135.26 1227.7 1138.48 Q1224.6 1141.68 1218.95 1147.44 Z" fill="#000000" fill-rule="evenodd" fill-opacity="1" /><path clip-path="url(#clip360)" d="M 0 0 M1245.08 1145.5 L1249.97 1145.5 L1249.97 1151.38 L1245.08 1151.38 L1245.08 1145.5 Z" fill="#000000" fill-rule="evenodd" fill-opacity="1" /><path clip-path="url(#clip360)" d="M 0 0 M1260.2 1116.82 L1278.55 1116.82 L1278.55 1120.75 L1264.48 1120.75 L1264.48 1129.22 Q1265.5 1128.88 1266.52 1128.71 Q1267.54 1128.53 1268.55 1128.53 Q1274.34 1128.53 1277.72 1131.7 Q1281.1 1134.87 1281.1 1140.29 Q1281.1 1145.87 1277.63 1148.97 Q1274.16 1152.05 1267.84 1152.05 Q1265.66 1152.05 1263.39 1151.68 Q1261.15 1151.31 1258.74 1150.57 L1258.74 1145.87 Q1260.82 1147 1263.04 1147.56 Q1265.27 1148.11 1267.74 1148.11 Q1271.75 1148.11 1274.09 1146.01 Q1276.42 1143.9 1276.42 1140.29 Q1276.42 1136.68 1274.09 1134.57 Q1271.75 1132.46 1267.74 1132.46 Q1265.87 1132.46 1263.99 1132.88 Q1262.14 1133.3 1260.2 1134.18 L1260.2 1116.82 Z" fill="#000000" fill-rule="evenodd" fill-opacity="1" /><path clip-path="url(#clip360)" d="M 0 0 M1466.76 1116.82 L1485.12 1116.82 L1485.12 1120.75 L1471.04 1120.75 L1471.04 1129.22 Q1472.06 1128.88 1473.08 1128.71 Q1474.1 1128.53 1475.12 1128.53 Q1480.9 1128.53 1484.28 1131.7 Q1487.66 1134.87 1487.66 1140.29 Q1487.66 1145.87 1484.19 1148.97 Q1480.72 1152.05 1474.4 1152.05 Q1472.22 1152.05 1469.95 1151.68 Q1467.71 1151.31 1465.3 1150.57 L1465.3 1145.87 Q1467.39 1147 1469.61 1147.56 Q1471.83 1148.11 1474.31 1148.11 Q1478.31 1148.11 1480.65 1146.01 Q1482.99 1143.9 1482.99 1140.29 Q1482.99 1136.68 1480.65 1134.57 Q1478.31 1132.46 1474.31 1132.46 Q1472.43 1132.46 1470.56 1132.88 Q1468.7 1133.3 1466.76 1134.18 L1466.76 1116.82 Z" fill="#000000" fill-rule="evenodd" fill-opacity="1" /><path clip-path="url(#clip360)" d="M 0 0 M1496.88 1145.5 L1501.76 1145.5 L1501.76 1151.38 L1496.88 1151.38 L1496.88 1145.5 Z" fill="#000000" fill-rule="evenodd" fill-opacity="1" /><path clip-path="url(#clip360)" d="M 0 0 M1521.94 1119.89 Q1518.33 1119.89 1516.51 1123.46 Q1514.7 1127 1514.7 1134.13 Q1514.7 1141.24 1516.51 1144.8 Q1518.33 1148.34 1521.94 1148.34 Q1525.58 1148.34 1527.38 1144.8 Q1529.21 1141.24 1529.21 1134.13 Q1529.21 1127 1527.38 1123.46 Q1525.58 1119.89 1521.94 1119.89 M1521.94 1116.19 Q1527.76 1116.19 1530.81 1120.8 Q1533.89 1125.38 1533.89 1134.13 Q1533.89 1142.86 1530.81 1147.46 Q1527.76 1152.05 1521.94 1152.05 Q1516.13 1152.05 1513.06 1147.46 Q1510 1142.86 1510 1134.13 Q1510 1125.38 1513.06 1120.8 Q1516.13 1116.19 1521.94 1116.19 Z" fill="#000000" fill-rule="evenodd" fill-opacity="1" /><path clip-path="url(#clip360)" d="M 0 0 M1718.3 1116.82 L1740.52 1116.82 L1740.52 1118.81 L1727.97 1151.38 L1723.09 1151.38 L1734.9 1120.75 L1718.3 1120.75 L1718.3 1116.82 Z" fill="#000000" fill-rule="evenodd" fill-opacity="1" /><path clip-path="url(#clip360)" d="M 0 0 M1749.64 1145.5 L1754.53 1145.5 L1754.53 1151.38 L1749.64 1151.38 L1749.64 1145.5 Z" fill="#000000" fill-rule="evenodd" fill-opacity="1" /><path clip-path="url(#clip360)" d="M 0 0 M1764.76 1116.82 L1783.11 1116.82 L1783.11 1120.75 L1769.04 1120.75 L1769.04 1129.22 Q1770.06 1128.88 1771.08 1128.71 Q1772.1 1128.53 1773.11 1128.53 Q1778.9 1128.53 1782.28 1131.7 Q1785.66 1134.87 1785.66 1140.29 Q1785.66 1145.87 1782.19 1148.97 Q1778.72 1152.05 1772.4 1152.05 Q1770.22 1152.05 1767.95 1151.68 Q1765.71 1151.31 1763.3 1150.57 L1763.3 1145.87 Q1765.38 1147 1767.6 1147.56 Q1769.83 1148.11 1772.3 1148.11 Q1776.31 1148.11 1778.65 1146.01 Q1780.98 1143.9 1780.98 1140.29 Q1780.98 1136.68 1778.65 1134.57 Q1776.31 1132.46 1772.3 1132.46 Q1770.43 1132.46 1768.55 1132.88 Q1766.7 1133.3 1764.76 1134.18 L1764.76 1116.82 Z" fill="#000000" fill-rule="evenodd" fill-opacity="1" /><polyline clip-path="url(#clip362)" style="stroke:#000000; stroke-width:2; stroke-opacity:0.1; fill:none" points="
  137.853,1066.27 1952.76,1066.27 
  "/>
<polyline clip-path="url(#clip362)" style="stroke:#000000; stroke-width:2; stroke-opacity:0.1; fill:none" points="
  137.853,866.005 1952.76,866.005 
  "/>
<polyline clip-path="url(#clip362)" style="stroke:#000000; stroke-width:2; stroke-opacity:0.1; fill:none" points="
  137.853,665.743 1952.76,665.743 
  "/>
<polyline clip-path="url(#clip362)" style="stroke:#000000; stroke-width:2; stroke-opacity:0.1; fill:none" points="
  137.853,465.48 1952.76,465.48 
  "/>
<polyline clip-path="url(#clip362)" style="stroke:#000000; stroke-width:2; stroke-opacity:0.1; fill:none" points="
  137.853,265.218 1952.76,265.218 
  "/>
<polyline clip-path="url(#clip360)" style="stroke:#000000; stroke-width:4; stroke-opacity:1; fill:none" points="
  137.853,1093.9 137.853,117.424 
  "/>
<polyline clip-path="url(#clip360)" style="stroke:#000000; stroke-width:4; stroke-opacity:1; fill:none" points="
  137.853,1066.27 159.632,1066.27 
  "/>
<polyline clip-path="url(#clip360)" style="stroke:#000000; stroke-width:4; stroke-opacity:1; fill:none" points="
  137.853,866.005 159.632,866.005 
  "/>
<polyline clip-path="url(#clip360)" style="stroke:#000000; stroke-width:4; stroke-opacity:1; fill:none" points="
  137.853,665.743 159.632,665.743 
  "/>
<polyline clip-path="url(#clip360)" style="stroke:#000000; stroke-width:4; stroke-opacity:1; fill:none" points="
  137.853,465.48 159.632,465.48 
  "/>
<polyline clip-path="url(#clip360)" style="stroke:#000000; stroke-width:4; stroke-opacity:1; fill:none" points="
  137.853,265.218 159.632,265.218 
  "/>
<path clip-path="url(#clip360)" d="M 0 0 M95.9086 1052.07 Q92.2975 1052.07 90.4688 1055.63 Q88.6632 1059.17 88.6632 1066.3 Q88.6632 1073.41 90.4688 1076.97 Q92.2975 1080.52 95.9086 1080.52 Q99.5428 1080.52 101.348 1076.97 Q103.177 1073.41 103.177 1066.3 Q103.177 1059.17 101.348 1055.63 Q99.5428 1052.07 95.9086 1052.07 M95.9086 1048.36 Q101.719 1048.36 104.774 1052.97 Q107.853 1057.55 107.853 1066.3 Q107.853 1075.03 104.774 1079.64 Q101.719 1084.22 95.9086 1084.22 Q90.0984 1084.22 87.0197 1079.64 Q83.9642 1075.03 83.9642 1066.3 Q83.9642 1057.55 87.0197 1052.97 Q90.0984 1048.36 95.9086 1048.36 Z" fill="#000000" fill-rule="evenodd" fill-opacity="1" /><path clip-path="url(#clip360)" d="M 0 0 M59.7745 879.35 L76.0939 879.35 L76.0939 883.285 L54.1495 883.285 L54.1495 879.35 Q56.8115 876.595 61.3949 871.966 Q66.0013 867.313 67.1819 865.97 Q69.4272 863.447 70.3068 861.711 Q71.2096 859.952 71.2096 858.262 Q71.2096 855.508 69.2652 853.771 Q67.3439 852.035 64.2421 852.035 Q62.043 852.035 59.5893 852.799 Q57.1588 853.563 54.381 855.114 L54.381 850.392 Q57.2051 849.258 59.6588 848.679 Q62.1124 848.1 64.1495 848.1 Q69.5198 848.1 72.7142 850.785 Q75.9087 853.471 75.9087 857.961 Q75.9087 860.091 75.0985 862.012 Q74.3115 863.91 72.205 866.503 Q71.6263 867.174 68.5245 870.392 Q65.4226 873.586 59.7745 879.35 Z" fill="#000000" fill-rule="evenodd" fill-opacity="1" /><path clip-path="url(#clip360)" d="M 0 0 M95.9086 851.804 Q92.2975 851.804 90.4688 855.369 Q88.6632 858.91 88.6632 866.04 Q88.6632 873.146 90.4688 876.711 Q92.2975 880.253 95.9086 880.253 Q99.5428 880.253 101.348 876.711 Q103.177 873.146 103.177 866.04 Q103.177 858.91 101.348 855.369 Q99.5428 851.804 95.9086 851.804 M95.9086 848.1 Q101.719 848.1 104.774 852.707 Q107.853 857.29 107.853 866.04 Q107.853 874.767 104.774 879.373 Q101.719 883.956 95.9086 883.956 Q90.0984 883.956 87.0197 879.373 Q83.9642 874.767 83.9642 866.04 Q83.9642 857.29 87.0197 852.707 Q90.0984 848.1 95.9086 848.1 Z" fill="#000000" fill-rule="evenodd" fill-opacity="1" /><path clip-path="url(#clip360)" d="M 0 0 M68.5939 652.537 L56.7884 670.986 L68.5939 670.986 L68.5939 652.537 M67.367 648.463 L73.2466 648.463 L73.2466 670.986 L78.1772 670.986 L78.1772 674.875 L73.2466 674.875 L73.2466 683.023 L68.5939 683.023 L68.5939 674.875 L52.9921 674.875 L52.9921 670.361 L67.367 648.463 Z" fill="#000000" fill-rule="evenodd" fill-opacity="1" /><path clip-path="url(#clip360)" d="M 0 0 M95.9086 651.541 Q92.2975 651.541 90.4688 655.106 Q88.6632 658.648 88.6632 665.777 Q88.6632 672.884 90.4688 676.449 Q92.2975 679.99 95.9086 679.99 Q99.5428 679.99 101.348 676.449 Q103.177 672.884 103.177 665.777 Q103.177 658.648 101.348 655.106 Q99.5428 651.541 95.9086 651.541 M95.9086 647.838 Q101.719 647.838 104.774 652.444 Q107.853 657.028 107.853 665.777 Q107.853 674.504 104.774 679.111 Q101.719 683.694 95.9086 683.694 Q90.0984 683.694 87.0197 679.111 Q83.9642 674.504 83.9642 665.777 Q83.9642 657.028 87.0197 652.444 Q90.0984 647.838 95.9086 647.838 Z" fill="#000000" fill-rule="evenodd" fill-opacity="1" /><path clip-path="url(#clip360)" d="M 0 0 M66.3254 463.617 Q63.1773 463.617 61.3254 465.77 Q59.4967 467.922 59.4967 471.672 Q59.4967 475.399 61.3254 477.575 Q63.1773 479.728 66.3254 479.728 Q69.4735 479.728 71.3022 477.575 Q73.1541 475.399 73.1541 471.672 Q73.1541 467.922 71.3022 465.77 Q69.4735 463.617 66.3254 463.617 M75.6077 448.964 L75.6077 453.223 Q73.8485 452.39 72.0429 451.95 Q70.2606 451.51 68.5013 451.51 Q63.8717 451.51 61.418 454.635 Q58.9875 457.76 58.6402 464.08 Q60.006 462.066 62.0662 461.001 Q64.1263 459.913 66.6032 459.913 Q71.8115 459.913 74.8207 463.084 Q77.8531 466.233 77.8531 471.672 Q77.8531 476.996 74.705 480.214 Q71.5568 483.432 66.3254 483.432 Q60.33 483.432 57.1588 478.848 Q53.9875 474.242 53.9875 465.515 Q53.9875 457.321 57.8764 452.46 Q61.7652 447.575 68.3161 447.575 Q70.0754 447.575 71.8578 447.923 Q73.6633 448.27 75.6077 448.964 Z" fill="#000000" fill-rule="evenodd" fill-opacity="1" /><path clip-path="url(#clip360)" d="M 0 0 M95.9086 451.279 Q92.2975 451.279 90.4688 454.844 Q88.6632 458.385 88.6632 465.515 Q88.6632 472.621 90.4688 476.186 Q92.2975 479.728 95.9086 479.728 Q99.5428 479.728 101.348 476.186 Q103.177 472.621 103.177 465.515 Q103.177 458.385 101.348 454.844 Q99.5428 451.279 95.9086 451.279 M95.9086 447.575 Q101.719 447.575 104.774 452.182 Q107.853 456.765 107.853 465.515 Q107.853 474.242 104.774 478.848 Q101.719 483.432 95.9086 483.432 Q90.0984 483.432 87.0197 478.848 Q83.9642 474.242 83.9642 465.515 Q83.9642 456.765 87.0197 452.182 Q90.0984 447.575 95.9086 447.575 Z" fill="#000000" fill-rule="evenodd" fill-opacity="1" /><path clip-path="url(#clip360)" d="M 0 0 M65.7467 266.086 Q62.4134 266.086 60.4921 267.868 Q58.5939 269.651 58.5939 272.776 Q58.5939 275.901 60.4921 277.683 Q62.4134 279.465 65.7467 279.465 Q69.08 279.465 71.0013 277.683 Q72.9226 275.877 72.9226 272.776 Q72.9226 269.651 71.0013 267.868 Q69.1032 266.086 65.7467 266.086 M61.0708 264.095 Q58.0615 263.354 56.3717 261.294 Q54.7051 259.234 54.7051 256.271 Q54.7051 252.128 57.6449 249.72 Q60.6078 247.313 65.7467 247.313 Q70.9087 247.313 73.8485 249.72 Q76.7883 252.128 76.7883 256.271 Q76.7883 259.234 75.0985 261.294 Q73.4318 263.354 70.4457 264.095 Q73.8253 264.882 75.7003 267.174 Q77.5985 269.465 77.5985 272.776 Q77.5985 277.799 74.5198 280.484 Q71.4642 283.169 65.7467 283.169 Q60.0291 283.169 56.9504 280.484 Q53.8949 277.799 53.8949 272.776 Q53.8949 269.465 55.793 267.174 Q57.6912 264.882 61.0708 264.095 M59.3578 256.711 Q59.3578 259.396 61.0245 260.901 Q62.7143 262.405 65.7467 262.405 Q68.7559 262.405 70.4457 260.901 Q72.1587 259.396 72.1587 256.711 Q72.1587 254.026 70.4457 252.521 Q68.7559 251.017 65.7467 251.017 Q62.7143 251.017 61.0245 252.521 Q59.3578 254.026 59.3578 256.711 Z" fill="#000000" fill-rule="evenodd" fill-opacity="1" /><path clip-path="url(#clip360)" d="M 0 0 M95.9086 251.017 Q92.2975 251.017 90.4688 254.581 Q88.6632 258.123 88.6632 265.253 Q88.6632 272.359 90.4688 275.924 Q92.2975 279.465 95.9086 279.465 Q99.5428 279.465 101.348 275.924 Q103.177 272.359 103.177 265.253 Q103.177 258.123 101.348 254.581 Q99.5428 251.017 95.9086 251.017 M95.9086 247.313 Q101.719 247.313 104.774 251.919 Q107.853 256.503 107.853 265.253 Q107.853 273.979 104.774 278.586 Q101.719 283.169 95.9086 283.169 Q90.0984 283.169 87.0197 278.586 Q83.9642 273.979 83.9642 265.253 Q83.9642 256.503 87.0197 251.919 Q90.0984 247.313 95.9086 247.313 Z" fill="#000000" fill-rule="evenodd" fill-opacity="1" /><path clip-path="url(#clip360)" d="M 0 0 M484.457 12.096 L492.64 12.096 L492.64 36.8875 L522.373 36.8875 L522.373 12.096 L530.556 12.096 L530.556 72.576 L522.373 72.576 L522.373 43.7741 L492.64 43.7741 L492.64 72.576 L484.457 72.576 L484.457 12.096 Z" fill="#000000" fill-rule="evenodd" fill-opacity="1" /><path clip-path="url(#clip360)" d="M 0 0 M546.517 27.2059 L553.97 27.2059 L553.97 72.576 L546.517 72.576 L546.517 27.2059 M546.517 9.54393 L553.97 9.54393 L553.97 18.9825 L546.517 18.9825 L546.517 9.54393 Z" fill="#000000" fill-rule="evenodd" fill-opacity="1" /><path clip-path="url(#clip360)" d="M 0 0 M598.49 28.5427 L598.49 35.5912 Q595.33 33.9709 591.927 33.1607 Q588.524 32.3505 584.879 32.3505 Q579.329 32.3505 576.534 34.0519 Q573.779 35.7533 573.779 39.156 Q573.779 41.7486 575.764 43.2475 Q577.749 44.7058 583.744 46.0426 L586.296 46.6097 Q594.236 48.3111 597.558 51.4303 Q600.92 54.509 600.92 60.0587 Q600.92 66.3781 595.897 70.0644 Q590.914 73.7508 582.165 73.7508 Q578.519 73.7508 574.549 73.0216 Q570.619 72.3329 566.244 70.9151 L566.244 63.2184 Q570.376 65.3654 574.387 66.4591 Q578.397 67.5124 582.327 67.5124 Q587.593 67.5124 590.428 65.73 Q593.264 63.9071 593.264 60.6258 Q593.264 57.5877 591.198 55.9673 Q589.173 54.3469 582.246 52.8481 L579.653 52.2405 Q572.726 50.7821 569.647 47.7845 Q566.569 44.7463 566.569 39.4801 Q566.569 33.0797 571.106 29.5959 Q575.643 26.1121 583.987 26.1121 Q588.119 26.1121 591.765 26.7198 Q595.411 27.3274 598.49 28.5427 Z" fill="#000000" fill-rule="evenodd" fill-opacity="1" /><path clip-path="url(#clip360)" d="M 0 0 M620.162 14.324 L620.162 27.2059 L635.515 27.2059 L635.515 32.9987 L620.162 32.9987 L620.162 57.6282 Q620.162 63.1779 621.661 64.7578 Q623.2 66.3376 627.859 66.3376 L635.515 66.3376 L635.515 72.576 L627.859 72.576 Q619.23 72.576 615.949 69.3758 Q612.668 66.1351 612.668 57.6282 L612.668 32.9987 L607.199 32.9987 L607.199 27.2059 L612.668 27.2059 L612.668 14.324 L620.162 14.324 Z" fill="#000000" fill-rule="evenodd" fill-opacity="1" /><path clip-path="url(#clip360)" d="M 0 0 M662.899 32.4315 Q656.904 32.4315 653.42 37.1306 Q649.936 41.7891 649.936 49.9314 Q649.936 58.0738 653.379 62.7728 Q656.863 67.4314 662.899 67.4314 Q668.854 67.4314 672.338 62.7323 Q675.821 58.0333 675.821 49.9314 Q675.821 41.8701 672.338 37.1711 Q668.854 32.4315 662.899 32.4315 M662.899 26.1121 Q672.621 26.1121 678.171 32.4315 Q683.721 38.7509 683.721 49.9314 Q683.721 61.0714 678.171 67.4314 Q672.621 73.7508 662.899 73.7508 Q653.136 73.7508 647.587 67.4314 Q642.077 61.0714 642.077 49.9314 Q642.077 38.7509 647.587 32.4315 Q653.136 26.1121 662.899 26.1121 Z" fill="#000000" fill-rule="evenodd" fill-opacity="1" /><path clip-path="url(#clip360)" d="M 0 0 M725.931 49.3643 Q725.931 41.2625 722.569 36.8065 Q719.247 32.3505 713.211 32.3505 Q707.216 32.3505 703.854 36.8065 Q700.532 41.2625 700.532 49.3643 Q700.532 57.4256 703.854 61.8816 Q707.216 66.3376 713.211 66.3376 Q719.247 66.3376 722.569 61.8816 Q725.931 57.4256 725.931 49.3643 M733.385 66.9452 Q733.385 78.5308 728.24 84.1616 Q723.096 89.8329 712.482 89.8329 Q708.553 89.8329 705.069 89.2252 Q701.585 88.6581 698.304 87.4428 L698.304 80.1917 Q701.585 81.9741 704.785 82.8248 Q707.986 83.6755 711.307 83.6755 Q718.64 83.6755 722.285 79.8271 Q725.931 76.0193 725.931 68.282 L725.931 64.5957 Q723.622 68.6061 720.017 70.5911 Q716.412 72.576 711.388 72.576 Q703.044 72.576 697.939 66.2161 Q692.835 59.8562 692.835 49.3643 Q692.835 38.832 697.939 32.472 Q703.044 26.1121 711.388 26.1121 Q716.412 26.1121 720.017 28.0971 Q723.622 30.082 725.931 34.0924 L725.931 27.2059 L733.385 27.2059 L733.385 66.9452 Z" fill="#000000" fill-rule="evenodd" fill-opacity="1" /><path clip-path="url(#clip360)" d="M 0 0 M775.028 34.1734 Q773.772 33.4443 772.273 33.1202 Q770.815 32.7556 769.033 32.7556 Q762.713 32.7556 759.311 36.8875 Q755.948 40.9789 755.948 48.6757 L755.948 72.576 L748.454 72.576 L748.454 27.2059 L755.948 27.2059 L755.948 34.2544 Q758.298 30.1225 762.065 28.1376 Q765.833 26.1121 771.22 26.1121 Q771.99 26.1121 772.922 26.2337 Q773.853 26.3147 774.988 26.5172 L775.028 34.1734 Z" fill="#000000" fill-rule="evenodd" fill-opacity="1" /><path clip-path="url(#clip360)" d="M 0 0 M803.465 49.7694 Q794.432 49.7694 790.948 51.8354 Q787.464 53.9013 787.464 58.8839 Q787.464 62.8538 790.057 65.2034 Q792.69 67.5124 797.187 67.5124 Q803.384 67.5124 807.111 63.1374 Q810.879 58.7219 810.879 51.4303 L810.879 49.7694 L803.465 49.7694 M818.332 46.6907 L818.332 72.576 L810.879 72.576 L810.879 65.6895 Q808.327 69.8214 804.519 71.8063 Q800.711 73.7508 795.202 73.7508 Q788.234 73.7508 784.102 69.8619 Q780.011 65.9325 780.011 59.3701 Q780.011 51.7138 785.115 47.825 Q790.259 43.9361 800.427 43.9361 L810.879 43.9361 L810.879 43.2069 Q810.879 38.0623 807.476 35.2672 Q804.114 32.4315 797.997 32.4315 Q794.108 32.4315 790.422 33.3632 Q786.735 34.295 783.332 36.1584 L783.332 29.2718 Q787.424 27.692 791.272 26.9223 Q795.121 26.1121 798.766 26.1121 Q808.61 26.1121 813.471 31.2163 Q818.332 36.3204 818.332 46.6907 Z" fill="#000000" fill-rule="evenodd" fill-opacity="1" /><path clip-path="url(#clip360)" d="M 0 0 M869.009 35.9153 Q871.804 30.8922 875.693 28.5022 Q879.582 26.1121 884.848 26.1121 Q891.937 26.1121 895.786 31.0947 Q899.634 36.0368 899.634 45.1919 L899.634 72.576 L892.14 72.576 L892.14 45.4349 Q892.14 38.913 889.831 35.7533 Q887.522 32.5936 882.782 32.5936 Q876.989 32.5936 873.627 36.4419 Q870.265 40.2903 870.265 46.9338 L870.265 72.576 L862.771 72.576 L862.771 45.4349 Q862.771 38.8725 860.462 35.7533 Q858.153 32.5936 853.332 32.5936 Q847.62 32.5936 844.258 36.4824 Q840.896 40.3308 840.896 46.9338 L840.896 72.576 L833.402 72.576 L833.402 27.2059 L840.896 27.2059 L840.896 34.2544 Q843.448 30.082 847.013 28.0971 Q850.577 26.1121 855.479 26.1121 Q860.421 26.1121 863.864 28.6237 Q867.348 31.1352 869.009 35.9153 Z" fill="#000000" fill-rule="evenodd" fill-opacity="1" /><path clip-path="url(#clip360)" d="M 0 0 M958.453 32.4315 Q952.458 32.4315 948.974 37.1306 Q945.49 41.7891 945.49 49.9314 Q945.49 58.0738 948.933 62.7728 Q952.417 67.4314 958.453 67.4314 Q964.408 67.4314 967.892 62.7323 Q971.375 58.0333 971.375 49.9314 Q971.375 41.8701 967.892 37.1711 Q964.408 32.4315 958.453 32.4315 M958.453 26.1121 Q968.175 26.1121 973.725 32.4315 Q979.275 38.7509 979.275 49.9314 Q979.275 61.0714 973.725 67.4314 Q968.175 73.7508 958.453 73.7508 Q948.69 73.7508 943.141 67.4314 Q937.631 61.0714 937.631 49.9314 Q937.631 38.7509 943.141 32.4315 Q948.69 26.1121 958.453 26.1121 Z" fill="#000000" fill-rule="evenodd" fill-opacity="1" /><path clip-path="url(#clip360)" d="M 0 0 M1014.6 9.54393 L1014.6 15.7418 L1007.47 15.7418 Q1003.46 15.7418 1001.88 17.3622 Q1000.34 18.9825 1000.34 23.1955 L1000.34 27.2059 L1012.61 27.2059 L1012.61 32.9987 L1000.34 32.9987 L1000.34 72.576 L992.845 72.576 L992.845 32.9987 L985.716 32.9987 L985.716 27.2059 L992.845 27.2059 L992.845 24.0462 Q992.845 16.471 996.37 13.0277 Q999.894 9.54393 1007.55 9.54393 L1014.6 9.54393 Z" fill="#000000" fill-rule="evenodd" fill-opacity="1" /><path clip-path="url(#clip360)" d="M 0 0 M1054.58 14.324 L1054.58 27.2059 L1069.93 27.2059 L1069.93 32.9987 L1054.58 32.9987 L1054.58 57.6282 Q1054.58 63.1779 1056.08 64.7578 Q1057.62 66.3376 1062.28 66.3376 L1069.93 66.3376 L1069.93 72.576 L1062.28 72.576 Q1053.65 72.576 1050.37 69.3758 Q1047.09 66.1351 1047.09 57.6282 L1047.09 32.9987 L1041.62 32.9987 L1041.62 27.2059 L1047.09 27.2059 L1047.09 14.324 L1054.58 14.324 Z" fill="#000000" fill-rule="evenodd" fill-opacity="1" /><path clip-path="url(#clip360)" d="M 0 0 M1117.45 45.1919 L1117.45 72.576 L1110 72.576 L1110 45.4349 Q1110 38.994 1107.49 35.7938 Q1104.97 32.5936 1099.95 32.5936 Q1093.92 32.5936 1090.43 36.4419 Q1086.95 40.2903 1086.95 46.9338 L1086.95 72.576 L1079.45 72.576 L1079.45 9.54393 L1086.95 9.54393 L1086.95 34.2544 Q1089.62 30.163 1093.23 28.1376 Q1096.87 26.1121 1101.61 26.1121 Q1109.43 26.1121 1113.44 30.9732 Q1117.45 35.7938 1117.45 45.1919 Z" fill="#000000" fill-rule="evenodd" fill-opacity="1" /><path clip-path="url(#clip360)" d="M 0 0 M1171.13 48.0275 L1171.13 51.6733 L1136.85 51.6733 Q1137.34 59.3701 1141.47 63.421 Q1145.65 67.4314 1153.06 67.4314 Q1157.35 67.4314 1161.36 66.3781 Q1165.41 65.3249 1169.38 63.2184 L1169.38 70.267 Q1165.37 71.9684 1161.16 72.8596 Q1156.95 73.7508 1152.61 73.7508 Q1141.76 73.7508 1135.4 67.4314 Q1129.08 61.1119 1129.08 50.3365 Q1129.08 39.1965 1135.07 32.6746 Q1141.11 26.1121 1151.32 26.1121 Q1160.47 26.1121 1165.78 32.0264 Q1171.13 37.9003 1171.13 48.0275 M1163.67 45.84 Q1163.59 39.7232 1160.23 36.0774 Q1156.91 32.4315 1151.4 32.4315 Q1145.16 32.4315 1141.39 35.9558 Q1137.67 39.4801 1137.1 45.8805 L1163.67 45.84 Z" fill="#000000" fill-rule="evenodd" fill-opacity="1" /><path clip-path="url(#clip360)" d="M 0 0 M1248.54 48.0275 L1248.54 51.6733 L1214.27 51.6733 Q1214.75 59.3701 1218.89 63.421 Q1223.06 67.4314 1230.47 67.4314 Q1234.77 67.4314 1238.78 66.3781 Q1242.83 65.3249 1246.8 63.2184 L1246.8 70.267 Q1242.79 71.9684 1238.57 72.8596 Q1234.36 73.7508 1230.03 73.7508 Q1219.17 73.7508 1212.81 67.4314 Q1206.49 61.1119 1206.49 50.3365 Q1206.49 39.1965 1212.49 32.6746 Q1218.52 26.1121 1228.73 26.1121 Q1237.88 26.1121 1243.19 32.0264 Q1248.54 37.9003 1248.54 48.0275 M1241.08 45.84 Q1241 39.7232 1237.64 36.0774 Q1234.32 32.4315 1228.81 32.4315 Q1222.57 32.4315 1218.8 35.9558 Q1215.08 39.4801 1214.51 45.8805 L1241.08 45.84 Z" fill="#000000" fill-rule="evenodd" fill-opacity="1" /><path clip-path="url(#clip360)" d="M 0 0 M1289.7 28.5427 L1289.7 35.5912 Q1286.54 33.9709 1283.13 33.1607 Q1279.73 32.3505 1276.08 32.3505 Q1270.53 32.3505 1267.74 34.0519 Q1264.98 35.7533 1264.98 39.156 Q1264.98 41.7486 1266.97 43.2475 Q1268.95 44.7058 1274.95 46.0426 L1277.5 46.6097 Q1285.44 48.3111 1288.76 51.4303 Q1292.13 54.509 1292.13 60.0587 Q1292.13 66.3781 1287.1 70.0644 Q1282.12 73.7508 1273.37 73.7508 Q1269.72 73.7508 1265.75 73.0216 Q1261.83 72.3329 1257.45 70.9151 L1257.45 63.2184 Q1261.58 65.3654 1265.59 66.4591 Q1269.6 67.5124 1273.53 67.5124 Q1278.8 67.5124 1281.63 65.73 Q1284.47 63.9071 1284.47 60.6258 Q1284.47 57.5877 1282.4 55.9673 Q1280.38 54.3469 1273.45 52.8481 L1270.86 52.2405 Q1263.93 50.7821 1260.85 47.7845 Q1257.77 44.7463 1257.77 39.4801 Q1257.77 33.0797 1262.31 29.5959 Q1266.85 26.1121 1275.19 26.1121 Q1279.33 26.1121 1282.97 26.7198 Q1286.62 27.3274 1289.7 28.5427 Z" fill="#000000" fill-rule="evenodd" fill-opacity="1" /><path clip-path="url(#clip360)" d="M 0 0 M1311.37 14.324 L1311.37 27.2059 L1326.72 27.2059 L1326.72 32.9987 L1311.37 32.9987 L1311.37 57.6282 Q1311.37 63.1779 1312.87 64.7578 Q1314.41 66.3376 1319.06 66.3376 L1326.72 66.3376 L1326.72 72.576 L1319.06 72.576 Q1310.44 72.576 1307.15 69.3758 Q1303.87 66.1351 1303.87 57.6282 L1303.87 32.9987 L1298.4 32.9987 L1298.4 27.2059 L1303.87 27.2059 L1303.87 14.324 L1311.37 14.324 Z" fill="#000000" fill-rule="evenodd" fill-opacity="1" /><path clip-path="url(#clip360)" d="M 0 0 M1336.52 27.2059 L1343.98 27.2059 L1343.98 72.576 L1336.52 72.576 L1336.52 27.2059 M1336.52 9.54393 L1343.98 9.54393 L1343.98 18.9825 L1336.52 18.9825 L1336.52 9.54393 Z" fill="#000000" fill-rule="evenodd" fill-opacity="1" /><path clip-path="url(#clip360)" d="M 0 0 M1394.9 35.9153 Q1397.69 30.8922 1401.58 28.5022 Q1405.47 26.1121 1410.74 26.1121 Q1417.83 26.1121 1421.67 31.0947 Q1425.52 36.0368 1425.52 45.1919 L1425.52 72.576 L1418.03 72.576 L1418.03 45.4349 Q1418.03 38.913 1415.72 35.7533 Q1413.41 32.5936 1408.67 32.5936 Q1402.88 32.5936 1399.52 36.4419 Q1396.15 40.2903 1396.15 46.9338 L1396.15 72.576 L1388.66 72.576 L1388.66 45.4349 Q1388.66 38.8725 1386.35 35.7533 Q1384.04 32.5936 1379.22 32.5936 Q1373.51 32.5936 1370.15 36.4824 Q1366.78 40.3308 1366.78 46.9338 L1366.78 72.576 L1359.29 72.576 L1359.29 27.2059 L1366.78 27.2059 L1366.78 34.2544 Q1369.34 30.082 1372.9 28.0971 Q1376.47 26.1121 1381.37 26.1121 Q1386.31 26.1121 1389.75 28.6237 Q1393.24 31.1352 1394.9 35.9153 Z" fill="#000000" fill-rule="evenodd" fill-opacity="1" /><path clip-path="url(#clip360)" d="M 0 0 M1461.01 49.7694 Q1451.97 49.7694 1448.49 51.8354 Q1445.01 53.9013 1445.01 58.8839 Q1445.01 62.8538 1447.6 65.2034 Q1450.23 67.5124 1454.73 67.5124 Q1460.93 67.5124 1464.65 63.1374 Q1468.42 58.7219 1468.42 51.4303 L1468.42 49.7694 L1461.01 49.7694 M1475.88 46.6907 L1475.88 72.576 L1468.42 72.576 L1468.42 65.6895 Q1465.87 69.8214 1462.06 71.8063 Q1458.25 73.7508 1452.74 73.7508 Q1445.78 73.7508 1441.64 69.8619 Q1437.55 65.9325 1437.55 59.3701 Q1437.55 51.7138 1442.66 47.825 Q1447.8 43.9361 1457.97 43.9361 L1468.42 43.9361 L1468.42 43.2069 Q1468.42 38.0623 1465.02 35.2672 Q1461.66 32.4315 1455.54 32.4315 Q1451.65 32.4315 1447.96 33.3632 Q1444.28 34.295 1440.88 36.1584 L1440.88 29.2718 Q1444.97 27.692 1448.81 26.9223 Q1452.66 26.1121 1456.31 26.1121 Q1466.15 26.1121 1471.01 31.2163 Q1475.88 36.3204 1475.88 46.6907 Z" fill="#000000" fill-rule="evenodd" fill-opacity="1" /><path clip-path="url(#clip360)" d="M 0 0 M1498.6 14.324 L1498.6 27.2059 L1513.95 27.2059 L1513.95 32.9987 L1498.6 32.9987 L1498.6 57.6282 Q1498.6 63.1779 1500.1 64.7578 Q1501.64 66.3376 1506.3 66.3376 L1513.95 66.3376 L1513.95 72.576 L1506.3 72.576 Q1497.67 72.576 1494.39 69.3758 Q1491.11 66.1351 1491.11 57.6282 L1491.11 32.9987 L1485.64 32.9987 L1485.64 27.2059 L1491.11 27.2059 L1491.11 14.324 L1498.6 14.324 Z" fill="#000000" fill-rule="evenodd" fill-opacity="1" /><path clip-path="url(#clip360)" d="M 0 0 M1562.56 48.0275 L1562.56 51.6733 L1528.29 51.6733 Q1528.78 59.3701 1532.91 63.421 Q1537.08 67.4314 1544.5 67.4314 Q1548.79 67.4314 1552.8 66.3781 Q1556.85 65.3249 1560.82 63.2184 L1560.82 70.267 Q1556.81 71.9684 1552.6 72.8596 Q1548.39 73.7508 1544.05 73.7508 Q1533.2 73.7508 1526.84 67.4314 Q1520.52 61.1119 1520.52 50.3365 Q1520.52 39.1965 1526.51 32.6746 Q1532.55 26.1121 1542.76 26.1121 Q1551.91 26.1121 1557.22 32.0264 Q1562.56 37.9003 1562.56 48.0275 M1555.11 45.84 Q1555.03 39.7232 1551.67 36.0774 Q1548.35 32.4315 1542.84 32.4315 Q1536.6 32.4315 1532.83 35.9558 Q1529.1 39.4801 1528.54 45.8805 L1555.11 45.84 Z" fill="#000000" fill-rule="evenodd" fill-opacity="1" /><path clip-path="url(#clip360)" d="M 0 0 M1603.72 28.5427 L1603.72 35.5912 Q1600.56 33.9709 1597.16 33.1607 Q1593.76 32.3505 1590.11 32.3505 Q1584.56 32.3505 1581.77 34.0519 Q1579.01 35.7533 1579.01 39.156 Q1579.01 41.7486 1581 43.2475 Q1582.98 44.7058 1588.98 46.0426 L1591.53 46.6097 Q1599.47 48.3111 1602.79 51.4303 Q1606.15 54.509 1606.15 60.0587 Q1606.15 66.3781 1601.13 70.0644 Q1596.15 73.7508 1587.4 73.7508 Q1583.75 73.7508 1579.78 73.0216 Q1575.85 72.3329 1571.48 70.9151 L1571.48 63.2184 Q1575.61 65.3654 1579.62 66.4591 Q1583.63 67.5124 1587.56 67.5124 Q1592.82 67.5124 1595.66 65.73 Q1598.5 63.9071 1598.5 60.6258 Q1598.5 57.5877 1596.43 55.9673 Q1594.4 54.3469 1587.48 52.8481 L1584.88 52.2405 Q1577.96 50.7821 1574.88 47.7845 Q1571.8 44.7463 1571.8 39.4801 Q1571.8 33.0797 1576.34 29.5959 Q1580.87 26.1121 1589.22 26.1121 Q1593.35 26.1121 1597 26.7198 Q1600.64 27.3274 1603.72 28.5427 Z" fill="#000000" fill-rule="evenodd" fill-opacity="1" /><path clip-path="url(#clip362)" d="
M338.629 1036.23 L338.629 1066.27 L389.106 1066.27 L389.106 1036.23 L338.629 1036.23 L338.629 1036.23  Z
  " fill="#009af9" fill-rule="evenodd" fill-opacity="0.7"/>
<polyline clip-path="url(#clip362)" style="stroke:#000000; stroke-width:4; stroke-opacity:0.7; fill:none" points="
  338.629,1036.23 338.629,1066.27 389.106,1066.27 389.106,1036.23 338.629,1036.23 
  "/>
<path clip-path="url(#clip362)" d="
M389.106 1066.27 L389.106 1066.27 L439.583 1066.27 L439.583 1066.27 L389.106 1066.27 L389.106 1066.27  Z
  " fill="#009af9" fill-rule="evenodd" fill-opacity="0.7"/>
<polyline clip-path="url(#clip362)" style="stroke:#000000; stroke-width:4; stroke-opacity:0.7; fill:none" points="
  389.106,1066.27 389.106,1066.27 439.583,1066.27 389.106,1066.27 
  "/>
<path clip-path="url(#clip362)" d="
M439.583 1016.2 L439.583 1066.27 L490.06 1066.27 L490.06 1016.2 L439.583 1016.2 L439.583 1016.2  Z
  " fill="#009af9" fill-rule="evenodd" fill-opacity="0.7"/>
<polyline clip-path="url(#clip362)" style="stroke:#000000; stroke-width:4; stroke-opacity:0.7; fill:none" points="
  439.583,1016.2 439.583,1066.27 490.06,1066.27 490.06,1016.2 439.583,1016.2 
  "/>
<path clip-path="url(#clip362)" d="
M490.06 1006.19 L490.06 1066.27 L540.537 1066.27 L540.537 1006.19 L490.06 1006.19 L490.06 1006.19  Z
  " fill="#009af9" fill-rule="evenodd" fill-opacity="0.7"/>
<polyline clip-path="url(#clip362)" style="stroke:#000000; stroke-width:4; stroke-opacity:0.7; fill:none" points="
  490.06,1006.19 490.06,1066.27 540.537,1066.27 540.537,1006.19 490.06,1006.19 
  "/>
<path clip-path="url(#clip362)" d="
M540.537 876.018 L540.537 1066.27 L591.013 1066.27 L591.013 876.018 L540.537 876.018 L540.537 876.018  Z
  " fill="#009af9" fill-rule="evenodd" fill-opacity="0.7"/>
<polyline clip-path="url(#clip362)" style="stroke:#000000; stroke-width:4; stroke-opacity:0.7; fill:none" points="
  540.537,876.018 540.537,1066.27 591.013,1066.27 591.013,876.018 540.537,876.018 
  "/>
<path clip-path="url(#clip362)" d="
M591.013 835.966 L591.013 1066.27 L641.49 1066.27 L641.49 835.966 L591.013 835.966 L591.013 835.966  Z
  " fill="#009af9" fill-rule="evenodd" fill-opacity="0.7"/>
<polyline clip-path="url(#clip362)" style="stroke:#000000; stroke-width:4; stroke-opacity:0.7; fill:none" points="
  591.013,835.966 591.013,1066.27 641.49,1066.27 641.49,835.966 591.013,835.966 
  "/>
<path clip-path="url(#clip362)" d="
M641.49 785.9 L641.49 1066.27 L691.967 1066.27 L691.967 785.9 L641.49 785.9 L641.49 785.9  Z
  " fill="#009af9" fill-rule="evenodd" fill-opacity="0.7"/>
<polyline clip-path="url(#clip362)" style="stroke:#000000; stroke-width:4; stroke-opacity:0.7; fill:none" points="
  641.49,785.9 641.49,1066.27 691.967,1066.27 691.967,785.9 641.49,785.9 
  "/>
<path clip-path="url(#clip362)" d="
M691.967 575.625 L691.967 1066.27 L742.444 1066.27 L742.444 575.625 L691.967 575.625 L691.967 575.625  Z
  " fill="#009af9" fill-rule="evenodd" fill-opacity="0.7"/>
<polyline clip-path="url(#clip362)" style="stroke:#000000; stroke-width:4; stroke-opacity:0.7; fill:none" points="
  691.967,575.625 691.967,1066.27 742.444,1066.27 742.444,575.625 691.967,575.625 
  "/>
<path clip-path="url(#clip362)" d="
M742.444 605.664 L742.444 1066.27 L792.92 1066.27 L792.92 605.664 L742.444 605.664 L742.444 605.664  Z
  " fill="#009af9" fill-rule="evenodd" fill-opacity="0.7"/>
<polyline clip-path="url(#clip362)" style="stroke:#000000; stroke-width:4; stroke-opacity:0.7; fill:none" points="
  742.444,605.664 742.444,1066.27 792.92,1066.27 792.92,605.664 742.444,605.664 
  "/>
<path clip-path="url(#clip362)" d="
M792.92 465.48 L792.92 1066.27 L843.397 1066.27 L843.397 465.48 L792.92 465.48 L792.92 465.48  Z
  " fill="#009af9" fill-rule="evenodd" fill-opacity="0.7"/>
<polyline clip-path="url(#clip362)" style="stroke:#000000; stroke-width:4; stroke-opacity:0.7; fill:none" points="
  792.92,465.48 792.92,1066.27 843.397,1066.27 843.397,465.48 792.92,465.48 
  "/>
<path clip-path="url(#clip362)" d="
M843.397 365.349 L843.397 1066.27 L893.874 1066.27 L893.874 365.349 L843.397 365.349 L843.397 365.349  Z
  " fill="#009af9" fill-rule="evenodd" fill-opacity="0.7"/>
<polyline clip-path="url(#clip362)" style="stroke:#000000; stroke-width:4; stroke-opacity:0.7; fill:none" points="
  843.397,365.349 843.397,1066.27 893.874,1066.27 893.874,365.349 843.397,365.349 
  "/>
<path clip-path="url(#clip362)" d="
M893.874 205.139 L893.874 1066.27 L944.351 1066.27 L944.351 205.139 L893.874 205.139 L893.874 205.139  Z
  " fill="#009af9" fill-rule="evenodd" fill-opacity="0.7"/>
<polyline clip-path="url(#clip362)" style="stroke:#000000; stroke-width:4; stroke-opacity:0.7; fill:none" points="
  893.874,205.139 893.874,1066.27 944.351,1066.27 944.351,205.139 893.874,205.139 
  "/>
<path clip-path="url(#clip362)" d="
M944.351 255.205 L944.351 1066.27 L994.828 1066.27 L994.828 255.205 L944.351 255.205 L944.351 255.205  Z
  " fill="#009af9" fill-rule="evenodd" fill-opacity="0.7"/>
<polyline clip-path="url(#clip362)" style="stroke:#000000; stroke-width:4; stroke-opacity:0.7; fill:none" points="
  944.351,255.205 944.351,1066.27 994.828,1066.27 994.828,255.205 944.351,255.205 
  "/>
<path clip-path="url(#clip362)" d="
M994.828 145.06 L994.828 1066.27 L1045.3 1066.27 L1045.3 145.06 L994.828 145.06 L994.828 145.06  Z
  " fill="#009af9" fill-rule="evenodd" fill-opacity="0.7"/>
<polyline clip-path="url(#clip362)" style="stroke:#000000; stroke-width:4; stroke-opacity:0.7; fill:none" points="
  994.828,145.06 994.828,1066.27 1045.3,1066.27 1045.3,145.06 994.828,145.06 
  "/>
<path clip-path="url(#clip362)" d="
M1045.3 265.218 L1045.3 1066.27 L1095.78 1066.27 L1095.78 265.218 L1045.3 265.218 L1045.3 265.218  Z
  " fill="#009af9" fill-rule="evenodd" fill-opacity="0.7"/>
<polyline clip-path="url(#clip362)" style="stroke:#000000; stroke-width:4; stroke-opacity:0.7; fill:none" points="
  1045.3,265.218 1045.3,1066.27 1095.78,1066.27 1095.78,265.218 1045.3,265.218 
  "/>
<path clip-path="url(#clip362)" d="
M1095.78 275.231 L1095.78 1066.27 L1146.26 1066.27 L1146.26 275.231 L1095.78 275.231 L1095.78 275.231  Z
  " fill="#009af9" fill-rule="evenodd" fill-opacity="0.7"/>
<polyline clip-path="url(#clip362)" style="stroke:#000000; stroke-width:4; stroke-opacity:0.7; fill:none" points="
  1095.78,275.231 1095.78,1066.27 1146.26,1066.27 1146.26,275.231 1095.78,275.231 
  "/>
<path clip-path="url(#clip362)" d="
M1146.26 405.402 L1146.26 1066.27 L1196.73 1066.27 L1196.73 405.402 L1146.26 405.402 L1146.26 405.402  Z
  " fill="#009af9" fill-rule="evenodd" fill-opacity="0.7"/>
<polyline clip-path="url(#clip362)" style="stroke:#000000; stroke-width:4; stroke-opacity:0.7; fill:none" points="
  1146.26,405.402 1146.26,1066.27 1196.73,1066.27 1196.73,405.402 1146.26,405.402 
  "/>
<path clip-path="url(#clip362)" d="
M1196.73 475.493 L1196.73 1066.27 L1247.21 1066.27 L1247.21 475.493 L1196.73 475.493 L1196.73 475.493  Z
  " fill="#009af9" fill-rule="evenodd" fill-opacity="0.7"/>
<polyline clip-path="url(#clip362)" style="stroke:#000000; stroke-width:4; stroke-opacity:0.7; fill:none" points="
  1196.73,475.493 1196.73,1066.27 1247.21,1066.27 1247.21,475.493 1196.73,475.493 
  "/>
<path clip-path="url(#clip362)" d="
M1247.21 615.677 L1247.21 1066.27 L1297.69 1066.27 L1297.69 615.677 L1247.21 615.677 L1247.21 615.677  Z
  " fill="#009af9" fill-rule="evenodd" fill-opacity="0.7"/>
<polyline clip-path="url(#clip362)" style="stroke:#000000; stroke-width:4; stroke-opacity:0.7; fill:none" points="
  1247.21,615.677 1247.21,1066.27 1297.69,1066.27 1297.69,615.677 1247.21,615.677 
  "/>
<path clip-path="url(#clip362)" d="
M1297.69 805.926 L1297.69 1066.27 L1348.17 1066.27 L1348.17 805.926 L1297.69 805.926 L1297.69 805.926  Z
  " fill="#009af9" fill-rule="evenodd" fill-opacity="0.7"/>
<polyline clip-path="url(#clip362)" style="stroke:#000000; stroke-width:4; stroke-opacity:0.7; fill:none" points="
  1297.69,805.926 1297.69,1066.27 1348.17,1066.27 1348.17,805.926 1297.69,805.926 
  "/>
<path clip-path="url(#clip362)" d="
M1348.17 775.887 L1348.17 1066.27 L1398.64 1066.27 L1398.64 775.887 L1348.17 775.887 L1348.17 775.887  Z
  " fill="#009af9" fill-rule="evenodd" fill-opacity="0.7"/>
<polyline clip-path="url(#clip362)" style="stroke:#000000; stroke-width:4; stroke-opacity:0.7; fill:none" points="
  1348.17,775.887 1348.17,1066.27 1398.64,1066.27 1398.64,775.887 1348.17,775.887 
  "/>
<path clip-path="url(#clip362)" d="
M1398.64 916.071 L1398.64 1066.27 L1449.12 1066.27 L1449.12 916.071 L1398.64 916.071 L1398.64 916.071  Z
  " fill="#009af9" fill-rule="evenodd" fill-opacity="0.7"/>
<polyline clip-path="url(#clip362)" style="stroke:#000000; stroke-width:4; stroke-opacity:0.7; fill:none" points="
  1398.64,916.071 1398.64,1066.27 1449.12,1066.27 1449.12,916.071 1398.64,916.071 
  "/>
<path clip-path="url(#clip362)" d="
M1449.12 946.11 L1449.12 1066.27 L1499.6 1066.27 L1499.6 946.11 L1449.12 946.11 L1449.12 946.11  Z
  " fill="#009af9" fill-rule="evenodd" fill-opacity="0.7"/>
<polyline clip-path="url(#clip362)" style="stroke:#000000; stroke-width:4; stroke-opacity:0.7; fill:none" points="
  1449.12,946.11 1449.12,1066.27 1499.6,1066.27 1499.6,946.11 1449.12,946.11 
  "/>
<path clip-path="url(#clip362)" d="
M1499.6 996.176 L1499.6 1066.27 L1550.07 1066.27 L1550.07 996.176 L1499.6 996.176 L1499.6 996.176  Z
  " fill="#009af9" fill-rule="evenodd" fill-opacity="0.7"/>
<polyline clip-path="url(#clip362)" style="stroke:#000000; stroke-width:4; stroke-opacity:0.7; fill:none" points="
  1499.6,996.176 1499.6,1066.27 1550.07,1066.27 1550.07,996.176 1499.6,996.176 
  "/>
<path clip-path="url(#clip362)" d="
M1550.07 1006.19 L1550.07 1066.27 L1600.55 1066.27 L1600.55 1006.19 L1550.07 1006.19 L1550.07 1006.19  Z
  " fill="#009af9" fill-rule="evenodd" fill-opacity="0.7"/>
<polyline clip-path="url(#clip362)" style="stroke:#000000; stroke-width:4; stroke-opacity:0.7; fill:none" points="
  1550.07,1006.19 1550.07,1066.27 1600.55,1066.27 1600.55,1006.19 1550.07,1006.19 
  "/>
<path clip-path="url(#clip362)" d="
M1600.55 1046.24 L1600.55 1066.27 L1651.03 1066.27 L1651.03 1046.24 L1600.55 1046.24 L1600.55 1046.24  Z
  " fill="#009af9" fill-rule="evenodd" fill-opacity="0.7"/>
<polyline clip-path="url(#clip362)" style="stroke:#000000; stroke-width:4; stroke-opacity:0.7; fill:none" points="
  1600.55,1046.24 1600.55,1066.27 1651.03,1066.27 1651.03,1046.24 1600.55,1046.24 
  "/>
<path clip-path="url(#clip362)" d="
M1651.03 1056.25 L1651.03 1066.27 L1701.5 1066.27 L1701.5 1056.25 L1651.03 1056.25 L1651.03 1056.25  Z
  " fill="#009af9" fill-rule="evenodd" fill-opacity="0.7"/>
<polyline clip-path="url(#clip362)" style="stroke:#000000; stroke-width:4; stroke-opacity:0.7; fill:none" points="
  1651.03,1056.25 1651.03,1066.27 1701.5,1066.27 1701.5,1056.25 1651.03,1056.25 
  "/>
<path clip-path="url(#clip362)" d="
M1701.5 1056.25 L1701.5 1066.27 L1751.98 1066.27 L1751.98 1056.25 L1701.5 1056.25 L1701.5 1056.25  Z
  " fill="#009af9" fill-rule="evenodd" fill-opacity="0.7"/>
<polyline clip-path="url(#clip362)" style="stroke:#000000; stroke-width:4; stroke-opacity:0.7; fill:none" points="
  1701.5,1056.25 1701.5,1066.27 1751.98,1066.27 1751.98,1056.25 1701.5,1056.25 
  "/>
<path clip-path="url(#clip362)" d="
M1751.98 1036.23 L1751.98 1066.27 L1802.46 1066.27 L1802.46 1036.23 L1751.98 1036.23 L1751.98 1036.23  Z
  " fill="#009af9" fill-rule="evenodd" fill-opacity="0.7"/>
<polyline clip-path="url(#clip362)" style="stroke:#000000; stroke-width:4; stroke-opacity:0.7; fill:none" points="
  1751.98,1036.23 1751.98,1066.27 1802.46,1066.27 1802.46,1036.23 1751.98,1036.23 
  "/>
<path clip-path="url(#clip362)" d="
M1802.46 1056.25 L1802.46 1066.27 L1852.93 1066.27 L1852.93 1056.25 L1802.46 1056.25 L1802.46 1056.25  Z
  " fill="#009af9" fill-rule="evenodd" fill-opacity="0.7"/>
<polyline clip-path="url(#clip362)" style="stroke:#000000; stroke-width:4; stroke-opacity:0.7; fill:none" points="
  1802.46,1056.25 1802.46,1066.27 1852.93,1066.27 1852.93,1056.25 1802.46,1056.25 
  "/>
<path clip-path="url(#clip362)" d="
M237.676 1056.25 L237.676 1066.27 L288.153 1066.27 L288.153 1056.25 L237.676 1056.25 L237.676 1056.25  Z
  " fill="#e26f46" fill-rule="evenodd" fill-opacity="0.7"/>
<polyline clip-path="url(#clip362)" style="stroke:#000000; stroke-width:4; stroke-opacity:0.7; fill:none" points="
  237.676,1056.25 237.676,1066.27 288.153,1066.27 288.153,1056.25 237.676,1056.25 
  "/>
<path clip-path="url(#clip362)" d="
M288.153 1046.24 L288.153 1066.27 L338.629 1066.27 L338.629 1046.24 L288.153 1046.24 L288.153 1046.24  Z
  " fill="#e26f46" fill-rule="evenodd" fill-opacity="0.7"/>
<polyline clip-path="url(#clip362)" style="stroke:#000000; stroke-width:4; stroke-opacity:0.7; fill:none" points="
  288.153,1046.24 288.153,1066.27 338.629,1066.27 338.629,1046.24 288.153,1046.24 
  "/>
<path clip-path="url(#clip362)" d="
M338.629 1026.22 L338.629 1066.27 L389.106 1066.27 L389.106 1026.22 L338.629 1026.22 L338.629 1026.22  Z
  " fill="#e26f46" fill-rule="evenodd" fill-opacity="0.7"/>
<polyline clip-path="url(#clip362)" style="stroke:#000000; stroke-width:4; stroke-opacity:0.7; fill:none" points="
  338.629,1026.22 338.629,1066.27 389.106,1066.27 389.106,1026.22 338.629,1026.22 
  "/>
<path clip-path="url(#clip362)" d="
M389.106 1026.22 L389.106 1066.27 L439.583 1066.27 L439.583 1026.22 L389.106 1026.22 L389.106 1026.22  Z
  " fill="#e26f46" fill-rule="evenodd" fill-opacity="0.7"/>
<polyline clip-path="url(#clip362)" style="stroke:#000000; stroke-width:4; stroke-opacity:0.7; fill:none" points="
  389.106,1026.22 389.106,1066.27 439.583,1066.27 439.583,1026.22 389.106,1026.22 
  "/>
<path clip-path="url(#clip362)" d="
M439.583 1036.23 L439.583 1066.27 L490.06 1066.27 L490.06 1036.23 L439.583 1036.23 L439.583 1036.23  Z
  " fill="#e26f46" fill-rule="evenodd" fill-opacity="0.7"/>
<polyline clip-path="url(#clip362)" style="stroke:#000000; stroke-width:4; stroke-opacity:0.7; fill:none" points="
  439.583,1036.23 439.583,1066.27 490.06,1066.27 490.06,1036.23 439.583,1036.23 
  "/>
<path clip-path="url(#clip362)" d="
M490.06 986.163 L490.06 1066.27 L540.537 1066.27 L540.537 986.163 L490.06 986.163 L490.06 986.163  Z
  " fill="#e26f46" fill-rule="evenodd" fill-opacity="0.7"/>
<polyline clip-path="url(#clip362)" style="stroke:#000000; stroke-width:4; stroke-opacity:0.7; fill:none" points="
  490.06,986.163 490.06,1066.27 540.537,1066.27 540.537,986.163 490.06,986.163 
  "/>
<path clip-path="url(#clip362)" d="
M540.537 855.992 L540.537 1066.27 L591.013 1066.27 L591.013 855.992 L540.537 855.992 L540.537 855.992  Z
  " fill="#e26f46" fill-rule="evenodd" fill-opacity="0.7"/>
<polyline clip-path="url(#clip362)" style="stroke:#000000; stroke-width:4; stroke-opacity:0.7; fill:none" points="
  540.537,855.992 540.537,1066.27 591.013,1066.27 591.013,855.992 540.537,855.992 
  "/>
<path clip-path="url(#clip362)" d="
M591.013 825.953 L591.013 1066.27 L641.49 1066.27 L641.49 825.953 L591.013 825.953 L591.013 825.953  Z
  " fill="#e26f46" fill-rule="evenodd" fill-opacity="0.7"/>
<polyline clip-path="url(#clip362)" style="stroke:#000000; stroke-width:4; stroke-opacity:0.7; fill:none" points="
  591.013,825.953 591.013,1066.27 641.49,1066.27 641.49,825.953 591.013,825.953 
  "/>
<path clip-path="url(#clip362)" d="
M641.49 765.874 L641.49 1066.27 L691.967 1066.27 L691.967 765.874 L641.49 765.874 L641.49 765.874  Z
  " fill="#e26f46" fill-rule="evenodd" fill-opacity="0.7"/>
<polyline clip-path="url(#clip362)" style="stroke:#000000; stroke-width:4; stroke-opacity:0.7; fill:none" points="
  641.49,765.874 641.49,1066.27 691.967,1066.27 691.967,765.874 641.49,765.874 
  "/>
<path clip-path="url(#clip362)" d="
M691.967 615.677 L691.967 1066.27 L742.444 1066.27 L742.444 615.677 L691.967 615.677 L691.967 615.677  Z
  " fill="#e26f46" fill-rule="evenodd" fill-opacity="0.7"/>
<polyline clip-path="url(#clip362)" style="stroke:#000000; stroke-width:4; stroke-opacity:0.7; fill:none" points="
  691.967,615.677 691.967,1066.27 742.444,1066.27 742.444,615.677 691.967,615.677 
  "/>
<path clip-path="url(#clip362)" d="
M742.444 585.638 L742.444 1066.27 L792.92 1066.27 L792.92 585.638 L742.444 585.638 L742.444 585.638  Z
  " fill="#e26f46" fill-rule="evenodd" fill-opacity="0.7"/>
<polyline clip-path="url(#clip362)" style="stroke:#000000; stroke-width:4; stroke-opacity:0.7; fill:none" points="
  742.444,585.638 742.444,1066.27 792.92,1066.27 792.92,585.638 742.444,585.638 
  "/>
<path clip-path="url(#clip362)" d="
M792.92 585.638 L792.92 1066.27 L843.397 1066.27 L843.397 585.638 L792.92 585.638 L792.92 585.638  Z
  " fill="#e26f46" fill-rule="evenodd" fill-opacity="0.7"/>
<polyline clip-path="url(#clip362)" style="stroke:#000000; stroke-width:4; stroke-opacity:0.7; fill:none" points="
  792.92,585.638 792.92,1066.27 843.397,1066.27 843.397,585.638 792.92,585.638 
  "/>
<path clip-path="url(#clip362)" d="
M843.397 285.244 L843.397 1066.27 L893.874 1066.27 L893.874 285.244 L843.397 285.244 L843.397 285.244  Z
  " fill="#e26f46" fill-rule="evenodd" fill-opacity="0.7"/>
<polyline clip-path="url(#clip362)" style="stroke:#000000; stroke-width:4; stroke-opacity:0.7; fill:none" points="
  843.397,285.244 843.397,1066.27 893.874,1066.27 893.874,285.244 843.397,285.244 
  "/>
<path clip-path="url(#clip362)" d="
M893.874 335.31 L893.874 1066.27 L944.351 1066.27 L944.351 335.31 L893.874 335.31 L893.874 335.31  Z
  " fill="#e26f46" fill-rule="evenodd" fill-opacity="0.7"/>
<polyline clip-path="url(#clip362)" style="stroke:#000000; stroke-width:4; stroke-opacity:0.7; fill:none" points="
  893.874,335.31 893.874,1066.27 944.351,1066.27 944.351,335.31 893.874,335.31 
  "/>
<path clip-path="url(#clip362)" d="
M944.351 345.323 L944.351 1066.27 L994.828 1066.27 L994.828 345.323 L944.351 345.323 L944.351 345.323  Z
  " fill="#e26f46" fill-rule="evenodd" fill-opacity="0.7"/>
<polyline clip-path="url(#clip362)" style="stroke:#000000; stroke-width:4; stroke-opacity:0.7; fill:none" points="
  944.351,345.323 944.351,1066.27 994.828,1066.27 994.828,345.323 944.351,345.323 
  "/>
<path clip-path="url(#clip362)" d="
M994.828 275.231 L994.828 1066.27 L1045.3 1066.27 L1045.3 275.231 L994.828 275.231 L994.828 275.231  Z
  " fill="#e26f46" fill-rule="evenodd" fill-opacity="0.7"/>
<polyline clip-path="url(#clip362)" style="stroke:#000000; stroke-width:4; stroke-opacity:0.7; fill:none" points="
  994.828,275.231 994.828,1066.27 1045.3,1066.27 1045.3,275.231 994.828,275.231 
  "/>
<path clip-path="url(#clip362)" d="
M1045.3 305.27 L1045.3 1066.27 L1095.78 1066.27 L1095.78 305.27 L1045.3 305.27 L1045.3 305.27  Z
  " fill="#e26f46" fill-rule="evenodd" fill-opacity="0.7"/>
<polyline clip-path="url(#clip362)" style="stroke:#000000; stroke-width:4; stroke-opacity:0.7; fill:none" points="
  1045.3,305.27 1045.3,1066.27 1095.78,1066.27 1095.78,305.27 1045.3,305.27 
  "/>
<path clip-path="url(#clip362)" d="
M1095.78 395.388 L1095.78 1066.27 L1146.26 1066.27 L1146.26 395.388 L1095.78 395.388 L1095.78 395.388  Z
  " fill="#e26f46" fill-rule="evenodd" fill-opacity="0.7"/>
<polyline clip-path="url(#clip362)" style="stroke:#000000; stroke-width:4; stroke-opacity:0.7; fill:none" points="
  1095.78,395.388 1095.78,1066.27 1146.26,1066.27 1146.26,395.388 1095.78,395.388 
  "/>
<path clip-path="url(#clip362)" d="
M1146.26 485.507 L1146.26 1066.27 L1196.73 1066.27 L1196.73 485.507 L1146.26 485.507 L1146.26 485.507  Z
  " fill="#e26f46" fill-rule="evenodd" fill-opacity="0.7"/>
<polyline clip-path="url(#clip362)" style="stroke:#000000; stroke-width:4; stroke-opacity:0.7; fill:none" points="
  1146.26,485.507 1146.26,1066.27 1196.73,1066.27 1196.73,485.507 1146.26,485.507 
  "/>
<path clip-path="url(#clip362)" d="
M1196.73 405.402 L1196.73 1066.27 L1247.21 1066.27 L1247.21 405.402 L1196.73 405.402 L1196.73 405.402  Z
  " fill="#e26f46" fill-rule="evenodd" fill-opacity="0.7"/>
<polyline clip-path="url(#clip362)" style="stroke:#000000; stroke-width:4; stroke-opacity:0.7; fill:none" points="
  1196.73,405.402 1196.73,1066.27 1247.21,1066.27 1247.21,405.402 1196.73,405.402 
  "/>
<path clip-path="url(#clip362)" d="
M1247.21 535.572 L1247.21 1066.27 L1297.69 1066.27 L1297.69 535.572 L1247.21 535.572 L1247.21 535.572  Z
  " fill="#e26f46" fill-rule="evenodd" fill-opacity="0.7"/>
<polyline clip-path="url(#clip362)" style="stroke:#000000; stroke-width:4; stroke-opacity:0.7; fill:none" points="
  1247.21,535.572 1247.21,1066.27 1297.69,1066.27 1297.69,535.572 1247.21,535.572 
  "/>
<path clip-path="url(#clip362)" d="
M1297.69 705.795 L1297.69 1066.27 L1348.17 1066.27 L1348.17 705.795 L1297.69 705.795 L1297.69 705.795  Z
  " fill="#e26f46" fill-rule="evenodd" fill-opacity="0.7"/>
<polyline clip-path="url(#clip362)" style="stroke:#000000; stroke-width:4; stroke-opacity:0.7; fill:none" points="
  1297.69,705.795 1297.69,1066.27 1348.17,1066.27 1348.17,705.795 1297.69,705.795 
  "/>
<path clip-path="url(#clip362)" d="
M1348.17 735.835 L1348.17 1066.27 L1398.64 1066.27 L1398.64 735.835 L1348.17 735.835 L1348.17 735.835  Z
  " fill="#e26f46" fill-rule="evenodd" fill-opacity="0.7"/>
<polyline clip-path="url(#clip362)" style="stroke:#000000; stroke-width:4; stroke-opacity:0.7; fill:none" points="
  1348.17,735.835 1348.17,1066.27 1398.64,1066.27 1398.64,735.835 1348.17,735.835 
  "/>
<path clip-path="url(#clip362)" d="
M1398.64 825.953 L1398.64 1066.27 L1449.12 1066.27 L1449.12 825.953 L1398.64 825.953 L1398.64 825.953  Z
  " fill="#e26f46" fill-rule="evenodd" fill-opacity="0.7"/>
<polyline clip-path="url(#clip362)" style="stroke:#000000; stroke-width:4; stroke-opacity:0.7; fill:none" points="
  1398.64,825.953 1398.64,1066.27 1449.12,1066.27 1449.12,825.953 1398.64,825.953 
  "/>
<path clip-path="url(#clip362)" d="
M1449.12 916.071 L1449.12 1066.27 L1499.6 1066.27 L1499.6 916.071 L1449.12 916.071 L1449.12 916.071  Z
  " fill="#e26f46" fill-rule="evenodd" fill-opacity="0.7"/>
<polyline clip-path="url(#clip362)" style="stroke:#000000; stroke-width:4; stroke-opacity:0.7; fill:none" points="
  1449.12,916.071 1449.12,1066.27 1499.6,1066.27 1499.6,916.071 1449.12,916.071 
  "/>
<path clip-path="url(#clip362)" d="
M1499.6 986.163 L1499.6 1066.27 L1550.07 1066.27 L1550.07 986.163 L1499.6 986.163 L1499.6 986.163  Z
  " fill="#e26f46" fill-rule="evenodd" fill-opacity="0.7"/>
<polyline clip-path="url(#clip362)" style="stroke:#000000; stroke-width:4; stroke-opacity:0.7; fill:none" points="
  1499.6,986.163 1499.6,1066.27 1550.07,1066.27 1550.07,986.163 1499.6,986.163 
  "/>
<path clip-path="url(#clip362)" d="
M1550.07 1016.2 L1550.07 1066.27 L1600.55 1066.27 L1600.55 1016.2 L1550.07 1016.2 L1550.07 1016.2  Z
  " fill="#e26f46" fill-rule="evenodd" fill-opacity="0.7"/>
<polyline clip-path="url(#clip362)" style="stroke:#000000; stroke-width:4; stroke-opacity:0.7; fill:none" points="
  1550.07,1016.2 1550.07,1066.27 1600.55,1066.27 1600.55,1016.2 1550.07,1016.2 
  "/>
<path clip-path="url(#clip362)" d="
M1600.55 966.136 L1600.55 1066.27 L1651.03 1066.27 L1651.03 966.136 L1600.55 966.136 L1600.55 966.136  Z
  " fill="#e26f46" fill-rule="evenodd" fill-opacity="0.7"/>
<polyline clip-path="url(#clip362)" style="stroke:#000000; stroke-width:4; stroke-opacity:0.7; fill:none" points="
  1600.55,966.136 1600.55,1066.27 1651.03,1066.27 1651.03,966.136 1600.55,966.136 
  "/>
<path clip-path="url(#clip362)" d="
M1651.03 1036.23 L1651.03 1066.27 L1701.5 1066.27 L1701.5 1036.23 L1651.03 1036.23 L1651.03 1036.23  Z
  " fill="#e26f46" fill-rule="evenodd" fill-opacity="0.7"/>
<polyline clip-path="url(#clip362)" style="stroke:#000000; stroke-width:4; stroke-opacity:0.7; fill:none" points="
  1651.03,1036.23 1651.03,1066.27 1701.5,1066.27 1701.5,1036.23 1651.03,1036.23 
  "/>
<path clip-path="url(#clip362)" d="
M1701.5 1036.23 L1701.5 1066.27 L1751.98 1066.27 L1751.98 1036.23 L1701.5 1036.23 L1701.5 1036.23  Z
  " fill="#e26f46" fill-rule="evenodd" fill-opacity="0.7"/>
<polyline clip-path="url(#clip362)" style="stroke:#000000; stroke-width:4; stroke-opacity:0.7; fill:none" points="
  1701.5,1036.23 1701.5,1066.27 1751.98,1066.27 1751.98,1036.23 1701.5,1036.23 
  "/>
<path clip-path="url(#clip362)" d="
M1751.98 1046.24 L1751.98 1066.27 L1802.46 1066.27 L1802.46 1046.24 L1751.98 1046.24 L1751.98 1046.24  Z
  " fill="#e26f46" fill-rule="evenodd" fill-opacity="0.7"/>
<polyline clip-path="url(#clip362)" style="stroke:#000000; stroke-width:4; stroke-opacity:0.7; fill:none" points="
  1751.98,1046.24 1751.98,1066.27 1802.46,1066.27 1802.46,1046.24 1751.98,1046.24 
  "/>
<path clip-path="url(#clip362)" d="
M1802.46 1056.25 L1802.46 1066.27 L1852.93 1066.27 L1852.93 1056.25 L1802.46 1056.25 L1802.46 1056.25  Z
  " fill="#e26f46" fill-rule="evenodd" fill-opacity="0.7"/>
<polyline clip-path="url(#clip362)" style="stroke:#000000; stroke-width:4; stroke-opacity:0.7; fill:none" points="
  1802.46,1056.25 1802.46,1066.27 1852.93,1066.27 1852.93,1056.25 1802.46,1056.25 
  "/>
<path clip-path="url(#clip360)" d="
M1515.72 331.413 L1892.26 331.413 L1892.26 149.973 L1515.72 149.973  Z
  " fill="#ffffff" fill-rule="evenodd" fill-opacity="1"/>
<polyline clip-path="url(#clip360)" style="stroke:#000000; stroke-width:4; stroke-opacity:1; fill:none" points="
  1515.72,331.413 1892.26,331.413 1892.26,149.973 1515.72,149.973 1515.72,331.413 
  "/>
<path clip-path="url(#clip360)" d="
M1535.89 234.645 L1656.88 234.645 L1656.88 186.261 L1535.89 186.261 L1535.89 234.645  Z
  " fill="#009af9" fill-rule="evenodd" fill-opacity="0.7"/>
<polyline clip-path="url(#clip360)" style="stroke:#000000; stroke-width:4; stroke-opacity:1; fill:none" points="
  1535.89,234.645 1656.88,234.645 1656.88,186.261 1535.89,186.261 1535.89,234.645 
  "/>
<path clip-path="url(#clip360)" d="M 0 0 M1684.45 194.447 L1684.45 201.808 L1693.23 201.808 L1693.23 205.118 L1684.45 205.118 L1684.45 219.192 Q1684.45 222.363 1685.31 223.266 Q1686.19 224.169 1688.85 224.169 L1693.23 224.169 L1693.23 227.733 L1688.85 227.733 Q1683.92 227.733 1682.04 225.905 Q1680.17 224.053 1680.17 219.192 L1680.17 205.118 L1677.04 205.118 L1677.04 201.808 L1680.17 201.808 L1680.17 194.447 L1684.45 194.447 Z" fill="#000000" fill-rule="evenodd" fill-opacity="1" /><path clip-path="url(#clip360)" d="M 0 0 M1720.38 212.085 L1720.38 227.733 L1716.12 227.733 L1716.12 212.224 Q1716.12 208.544 1714.68 206.715 Q1713.25 204.886 1710.38 204.886 Q1706.93 204.886 1704.94 207.085 Q1702.95 209.284 1702.95 213.081 L1702.95 227.733 L1698.66 227.733 L1698.66 191.715 L1702.95 191.715 L1702.95 205.835 Q1704.48 203.497 1706.54 202.34 Q1708.62 201.183 1711.33 201.183 Q1715.79 201.183 1718.09 203.96 Q1720.38 206.715 1720.38 212.085 Z" fill="#000000" fill-rule="evenodd" fill-opacity="1" /><path clip-path="url(#clip360)" d="M 0 0 M1751.05 213.706 L1751.05 215.789 L1731.47 215.789 Q1731.74 220.187 1734.1 222.502 Q1736.49 224.794 1740.72 224.794 Q1743.18 224.794 1745.47 224.192 Q1747.79 223.59 1750.05 222.386 L1750.05 226.414 Q1747.76 227.386 1745.35 227.895 Q1742.95 228.405 1740.47 228.405 Q1734.27 228.405 1730.63 224.794 Q1727.02 221.183 1727.02 215.025 Q1727.02 208.659 1730.45 204.933 Q1733.9 201.183 1739.73 201.183 Q1744.96 201.183 1747.99 204.562 Q1751.05 207.919 1751.05 213.706 M1746.79 212.456 Q1746.74 208.96 1744.82 206.877 Q1742.92 204.794 1739.78 204.794 Q1736.21 204.794 1734.06 206.808 Q1731.93 208.822 1731.6 212.479 L1746.79 212.456 Z" fill="#000000" fill-rule="evenodd" fill-opacity="1" /><path clip-path="url(#clip360)" d="M 0 0 M1762.25 194.447 L1762.25 201.808 L1771.03 201.808 L1771.03 205.118 L1762.25 205.118 L1762.25 219.192 Q1762.25 222.363 1763.11 223.266 Q1763.99 224.169 1766.65 224.169 L1771.03 224.169 L1771.03 227.733 L1766.65 227.733 Q1761.72 227.733 1759.85 225.905 Q1757.97 224.053 1757.97 219.192 L1757.97 205.118 L1754.85 205.118 L1754.85 201.808 L1757.97 201.808 L1757.97 194.447 L1762.25 194.447 Z" fill="#000000" fill-rule="evenodd" fill-opacity="1" /><path clip-path="url(#clip360)" d="M 0 0 M1788.41 214.701 Q1783.25 214.701 1781.26 215.882 Q1779.27 217.062 1779.27 219.909 Q1779.27 222.178 1780.75 223.521 Q1782.25 224.84 1784.82 224.84 Q1788.36 224.84 1790.49 222.34 Q1792.65 219.817 1792.65 215.65 L1792.65 214.701 L1788.41 214.701 M1796.91 212.942 L1796.91 227.733 L1792.65 227.733 L1792.65 223.798 Q1791.19 226.159 1789.01 227.294 Q1786.84 228.405 1783.69 228.405 Q1779.71 228.405 1777.35 226.183 Q1775.01 223.937 1775.01 220.187 Q1775.01 215.812 1777.92 213.59 Q1780.86 211.368 1786.67 211.368 L1792.65 211.368 L1792.65 210.951 Q1792.65 208.011 1790.7 206.414 Q1788.78 204.794 1785.28 204.794 Q1783.06 204.794 1780.96 205.326 Q1778.85 205.859 1776.91 206.923 L1776.91 202.988 Q1779.24 202.085 1781.44 201.646 Q1783.64 201.183 1785.72 201.183 Q1791.35 201.183 1794.13 204.099 Q1796.91 207.016 1796.91 212.942 Z" fill="#000000" fill-rule="evenodd" fill-opacity="1" /><path clip-path="url(#clip360)" d="M 0 0 M1825.38 235.604 L1825.38 238.914 L1800.75 238.914 L1800.75 235.604 L1825.38 235.604 Z" fill="#000000" fill-rule="evenodd" fill-opacity="1" /><path clip-path="url(#clip360)" d="M 0 0 M1839.98 196.252 Q1836.37 196.252 1834.54 199.817 Q1832.74 203.359 1832.74 210.488 Q1832.74 217.595 1834.54 221.159 Q1836.37 224.701 1839.98 224.701 Q1843.62 224.701 1845.42 221.159 Q1847.25 217.595 1847.25 210.488 Q1847.25 203.359 1845.42 199.817 Q1843.62 196.252 1839.98 196.252 M1839.98 192.548 Q1845.79 192.548 1848.85 197.155 Q1851.93 201.738 1851.93 210.488 Q1851.93 219.215 1848.85 223.821 Q1845.79 228.405 1839.98 228.405 Q1834.17 228.405 1831.09 223.821 Q1828.04 219.215 1828.04 210.488 Q1828.04 201.738 1831.09 197.155 Q1834.17 192.548 1839.98 192.548 Z" fill="#000000" fill-rule="evenodd" fill-opacity="1" /><path clip-path="url(#clip360)" d="
M1535.89 295.125 L1656.88 295.125 L1656.88 246.741 L1535.89 246.741 L1535.89 295.125  Z
  " fill="#e26f46" fill-rule="evenodd" fill-opacity="0.7"/>
<polyline clip-path="url(#clip360)" style="stroke:#000000; stroke-width:4; stroke-opacity:1; fill:none" points="
  1535.89,295.125 1656.88,295.125 1656.88,246.741 1535.89,246.741 1535.89,295.125 
  "/>
<path clip-path="url(#clip360)" d="M 0 0 M1684.45 254.927 L1684.45 262.288 L1693.23 262.288 L1693.23 265.598 L1684.45 265.598 L1684.45 279.672 Q1684.45 282.843 1685.31 283.746 Q1686.19 284.649 1688.85 284.649 L1693.23 284.649 L1693.23 288.213 L1688.85 288.213 Q1683.92 288.213 1682.04 286.385 Q1680.17 284.533 1680.17 279.672 L1680.17 265.598 L1677.04 265.598 L1677.04 262.288 L1680.17 262.288 L1680.17 254.927 L1684.45 254.927 Z" fill="#000000" fill-rule="evenodd" fill-opacity="1" /><path clip-path="url(#clip360)" d="M 0 0 M1720.38 272.565 L1720.38 288.213 L1716.12 288.213 L1716.12 272.704 Q1716.12 269.024 1714.68 267.195 Q1713.25 265.366 1710.38 265.366 Q1706.93 265.366 1704.94 267.565 Q1702.95 269.764 1702.95 273.561 L1702.95 288.213 L1698.66 288.213 L1698.66 252.195 L1702.95 252.195 L1702.95 266.315 Q1704.48 263.977 1706.54 262.82 Q1708.62 261.663 1711.33 261.663 Q1715.79 261.663 1718.09 264.44 Q1720.38 267.195 1720.38 272.565 Z" fill="#000000" fill-rule="evenodd" fill-opacity="1" /><path clip-path="url(#clip360)" d="M 0 0 M1751.05 274.186 L1751.05 276.269 L1731.47 276.269 Q1731.74 280.667 1734.1 282.982 Q1736.49 285.274 1740.72 285.274 Q1743.18 285.274 1745.47 284.672 Q1747.79 284.07 1750.05 282.866 L1750.05 286.894 Q1747.76 287.866 1745.35 288.375 Q1742.95 288.885 1740.47 288.885 Q1734.27 288.885 1730.63 285.274 Q1727.02 281.663 1727.02 275.505 Q1727.02 269.139 1730.45 265.413 Q1733.9 261.663 1739.73 261.663 Q1744.96 261.663 1747.99 265.042 Q1751.05 268.399 1751.05 274.186 M1746.79 272.936 Q1746.74 269.44 1744.82 267.357 Q1742.92 265.274 1739.78 265.274 Q1736.21 265.274 1734.06 267.288 Q1731.93 269.302 1731.6 272.959 L1746.79 272.936 Z" fill="#000000" fill-rule="evenodd" fill-opacity="1" /><path clip-path="url(#clip360)" d="M 0 0 M1762.25 254.927 L1762.25 262.288 L1771.03 262.288 L1771.03 265.598 L1762.25 265.598 L1762.25 279.672 Q1762.25 282.843 1763.11 283.746 Q1763.99 284.649 1766.65 284.649 L1771.03 284.649 L1771.03 288.213 L1766.65 288.213 Q1761.72 288.213 1759.85 286.385 Q1757.97 284.533 1757.97 279.672 L1757.97 265.598 L1754.85 265.598 L1754.85 262.288 L1757.97 262.288 L1757.97 254.927 L1762.25 254.927 Z" fill="#000000" fill-rule="evenodd" fill-opacity="1" /><path clip-path="url(#clip360)" d="M 0 0 M1788.41 275.181 Q1783.25 275.181 1781.26 276.362 Q1779.27 277.542 1779.27 280.389 Q1779.27 282.658 1780.75 284.001 Q1782.25 285.32 1784.82 285.32 Q1788.36 285.32 1790.49 282.82 Q1792.65 280.297 1792.65 276.13 L1792.65 275.181 L1788.41 275.181 M1796.91 273.422 L1796.91 288.213 L1792.65 288.213 L1792.65 284.278 Q1791.19 286.639 1789.01 287.774 Q1786.84 288.885 1783.69 288.885 Q1779.71 288.885 1777.35 286.663 Q1775.01 284.417 1775.01 280.667 Q1775.01 276.292 1777.92 274.07 Q1780.86 271.848 1786.67 271.848 L1792.65 271.848 L1792.65 271.431 Q1792.65 268.491 1790.7 266.894 Q1788.78 265.274 1785.28 265.274 Q1783.06 265.274 1780.96 265.806 Q1778.85 266.339 1776.91 267.403 L1776.91 263.468 Q1779.24 262.565 1781.44 262.126 Q1783.64 261.663 1785.72 261.663 Q1791.35 261.663 1794.13 264.579 Q1796.91 267.496 1796.91 273.422 Z" fill="#000000" fill-rule="evenodd" fill-opacity="1" /><path clip-path="url(#clip360)" d="M 0 0 M1825.38 296.084 L1825.38 299.394 L1800.75 299.394 L1800.75 296.084 L1825.38 296.084 Z" fill="#000000" fill-rule="evenodd" fill-opacity="1" /><path clip-path="url(#clip360)" d="M 0 0 M1830.79 284.278 L1838.43 284.278 L1838.43 257.913 L1830.12 259.579 L1830.12 255.32 L1838.39 253.653 L1843.06 253.653 L1843.06 284.278 L1850.7 284.278 L1850.7 288.213 L1830.79 288.213 L1830.79 284.278 Z" fill="#000000" fill-rule="evenodd" fill-opacity="1" /></svg>
