<?xml version="1.0" encoding="utf-8"?>
<svg xmlns="http://www.w3.org/2000/svg" xmlns:xlink="http://www.w3.org/1999/xlink" width="500" height="300" viewBox="0 0 2000 1200">
<defs>
  <clipPath id="clip370">
    <rect x="0" y="0" width="2000" height="1200"/>
  </clipPath>
</defs>
<path clip-path="url(#clip370)" d="
M0 1200 L2000 1200 L2000 0 L0 0  Z
  " fill="#ffffff" fill-rule="evenodd" fill-opacity="1"/>
<defs>
  <clipPath id="clip371">
    <rect x="400" y="0" width="1401" height="1200"/>
  </clipPath>
</defs>
<path clip-path="url(#clip370)" d="
M137.853 1093.9 L1952.76 1093.9 L1952.76 117.424 L137.853 117.424  Z
  " fill="#ffffff" fill-rule="evenodd" fill-opacity="1"/>
<defs>
  <clipPath id="clip372">
    <rect x="137" y="117" width="1816" height="977"/>
  </clipPath>
</defs>
<polyline clip-path="url(#clip372)" style="stroke:#000000; stroke-width:2; stroke-opacity:0.1; fill:none" points="
  147.312,1093.9 147.312,117.424 
  "/>
<polyline clip-path="url(#clip372)" style="stroke:#000000; stroke-width:2; stroke-opacity:0.1; fill:none" points="
  574.927,1093.9 574.927,117.424 
  "/>
<polyline clip-path="url(#clip372)" style="stroke:#000000; stroke-width:2; stroke-opacity:0.1; fill:none" points="
  1002.54,1093.9 1002.54,117.424 
  "/>
<polyline clip-path="url(#clip372)" style="stroke:#000000; stroke-width:2; stroke-opacity:0.1; fill:none" points="
  1430.16,1093.9 1430.16,117.424 
  "/>
<polyline clip-path="url(#clip372)" style="stroke:#000000; stroke-width:2; stroke-opacity:0.1; fill:none" points="
  1857.77,1093.9 1857.77,117.424 
  "/>
<polyline clip-path="url(#clip370)" style="stroke:#000000; stroke-width:4; stroke-opacity:1; fill:none" points="
  137.853,1093.9 1952.76,1093.9 
  "/>
<polyline clip-path="url(#clip370)" style="stroke:#000000; stroke-width:4; stroke-opacity:1; fill:none" points="
  147.312,1093.9 147.312,1082.19 
  "/>
<polyline clip-path="url(#clip370)" style="stroke:#000000; stroke-width:4; stroke-opacity:1; fill:none" points="
  574.927,1093.9 574.927,1082.19 
  "/>
<polyline clip-path="url(#clip370)" style="stroke:#000000; stroke-width:4; stroke-opacity:1; fill:none" points="
  1002.54,1093.9 1002.54,1082.19 
  "/>
<polyline clip-path="url(#clip370)" style="stroke:#000000; stroke-width:4; stroke-opacity:1; fill:none" points="
  1430.16,1093.9 1430.16,1082.19 
  "/>
<polyline clip-path="url(#clip370)" style="stroke:#000000; stroke-width:4; stroke-opacity:1; fill:none" points="
  1857.77,1093.9 1857.77,1082.19 
  "/>
<path clip-path="url(#clip370)" d="M 0 0 M101.375 1134.55 L131.05 1134.55 L131.05 1138.48 L101.375 1138.48 L101.375 1134.55 Z" fill="#000000" fill-rule="evenodd" fill-opacity="1" /><path clip-path="url(#clip370)" d="M 0 0 M141.953 1147.44 L149.592 1147.44 L149.592 1121.08 L141.282 1122.74 L141.282 1118.48 L149.546 1116.82 L154.221 1116.82 L154.221 1147.44 L161.86 1147.44 L161.86 1151.38 L141.953 1151.38 L141.953 1147.44 Z" fill="#000000" fill-rule="evenodd" fill-opacity="1" /><path clip-path="url(#clip370)" d="M 0 0 M181.305 1119.89 Q177.694 1119.89 175.865 1123.46 Q174.059 1127 174.059 1134.13 Q174.059 1141.24 175.865 1144.8 Q177.694 1148.34 181.305 1148.34 Q184.939 1148.34 186.744 1144.8 Q188.573 1141.24 188.573 1134.13 Q188.573 1127 186.744 1123.46 Q184.939 1119.89 181.305 1119.89 M181.305 1116.19 Q187.115 1116.19 190.17 1120.8 Q193.249 1125.38 193.249 1134.13 Q193.249 1142.86 190.17 1147.46 Q187.115 1152.05 181.305 1152.05 Q175.495 1152.05 172.416 1147.46 Q169.36 1142.86 169.36 1134.13 Q169.36 1125.38 172.416 1120.8 Q175.495 1116.19 181.305 1116.19 Z" fill="#000000" fill-rule="evenodd" fill-opacity="1" /><path clip-path="url(#clip370)" d="M 0 0 M544.569 1134.55 L574.244 1134.55 L574.244 1138.48 L544.569 1138.48 L544.569 1134.55 Z" fill="#000000" fill-rule="evenodd" fill-opacity="1" /><path clip-path="url(#clip370)" d="M 0 0 M584.383 1116.82 L602.74 1116.82 L602.74 1120.75 L588.666 1120.75 L588.666 1129.22 Q589.684 1128.88 590.703 1128.71 Q591.721 1128.53 592.74 1128.53 Q598.527 1128.53 601.906 1131.7 Q605.286 1134.87 605.286 1140.29 Q605.286 1145.87 601.814 1148.97 Q598.342 1152.05 592.022 1152.05 Q589.846 1152.05 587.578 1151.68 Q585.332 1151.31 582.925 1150.57 L582.925 1145.87 Q585.008 1147 587.231 1147.56 Q589.453 1148.11 591.93 1148.11 Q595.934 1148.11 598.272 1146.01 Q600.61 1143.9 600.61 1140.29 Q600.61 1136.68 598.272 1134.57 Q595.934 1132.46 591.93 1132.46 Q590.055 1132.46 588.18 1132.88 Q586.328 1133.3 584.383 1134.18 L584.383 1116.82 Z" fill="#000000" fill-rule="evenodd" fill-opacity="1" /><path clip-path="url(#clip370)" d="M 0 0 M1002.54 1119.89 Q998.932 1119.89 997.103 1123.46 Q995.298 1127 995.298 1134.13 Q995.298 1141.24 997.103 1144.8 Q998.932 1148.34 1002.54 1148.34 Q1006.18 1148.34 1007.98 1144.8 Q1009.81 1141.24 1009.81 1134.13 Q1009.81 1127 1007.98 1123.46 Q1006.18 1119.89 1002.54 1119.89 M1002.54 1116.19 Q1008.35 1116.19 1011.41 1120.8 Q1014.49 1125.38 1014.49 1134.13 Q1014.49 1142.86 1011.41 1147.46 Q1008.35 1152.05 1002.54 1152.05 Q996.733 1152.05 993.654 1147.46 Q990.598 1142.86 990.598 1134.13 Q990.598 1125.38 993.654 1120.8 Q996.733 1116.19 1002.54 1116.19 Z" fill="#000000" fill-rule="evenodd" fill-opacity="1" /><path clip-path="url(#clip370)" d="M 0 0 M1420.44 1116.82 L1438.79 1116.82 L1438.79 1120.75 L1424.72 1120.75 L1424.72 1129.22 Q1425.74 1128.88 1426.76 1128.71 Q1427.77 1128.53 1428.79 1128.53 Q1434.58 1128.53 1437.96 1131.7 Q1441.34 1134.87 1441.34 1140.29 Q1441.34 1145.87 1437.87 1148.97 Q1434.39 1152.05 1428.08 1152.05 Q1425.9 1152.05 1423.63 1151.68 Q1421.39 1151.31 1418.98 1150.57 L1418.98 1145.87 Q1421.06 1147 1423.28 1147.56 Q1425.51 1148.11 1427.98 1148.11 Q1431.99 1148.11 1434.33 1146.01 Q1436.66 1143.9 1436.66 1140.29 Q1436.66 1136.68 1434.33 1134.57 Q1431.99 1132.46 1427.98 1132.46 Q1426.11 1132.46 1424.23 1132.88 Q1422.38 1133.3 1420.44 1134.18 L1420.44 1116.82 Z" fill="#000000" fill-rule="evenodd" fill-opacity="1" /><path clip-path="url(#clip370)" d="M 0 0 M1832.46 1147.44 L1840.1 1147.44 L1840.1 1121.08 L1831.79 1122.74 L1831.79 1118.48 L1840.05 1116.82 L1844.73 1116.82 L1844.73 1147.44 L1852.37 1147.44 L1852.37 1151.38 L1832.46 1151.38 L1832.46 1147.44 Z" fill="#000000" fill-rule="evenodd" fill-opacity="1" /><path clip-path="url(#clip370)" d="M 0 0 M1871.81 1119.89 Q1868.2 1119.89 1866.37 1123.46 Q1864.57 1127 1864.57 1134.13 Q1864.57 1141.24 1866.37 1144.8 Q1868.2 1148.34 1871.81 1148.34 Q1875.45 1148.34 1877.25 1144.8 Q1879.08 1141.24 1879.08 1134.13 Q1879.08 1127 1877.25 1123.46 Q1875.45 1119.89 1871.81 1119.89 M1871.81 1116.19 Q1877.62 1116.19 1880.68 1120.8 Q1883.76 1125.38 1883.76 1134.13 Q1883.76 1142.86 1880.68 1147.46 Q1877.62 1152.05 1871.81 1152.05 Q1866 1152.05 1862.92 1147.46 Q1859.87 1142.86 1859.87 1134.13 Q1859.87 1125.38 1862.92 1120.8 Q1866 1116.19 1871.81 1116.19 Z" fill="#000000" fill-rule="evenodd" fill-opacity="1" /><polyline clip-path="url(#clip372)" style="stroke:#000000; stroke-width:2; stroke-opacity:0.1; fill:none" points="
  137.853,1066.27 1952.76,1066.27 
  "/>
<polyline clip-path="url(#clip372)" style="stroke:#000000; stroke-width:2; stroke-opacity:0.1; fill:none" points="
  137.853,859.255 1952.76,859.255 
  "/>
<polyline clip-path="url(#clip372)" style="stroke:#000000; stroke-width:2; stroke-opacity:0.1; fill:none" points="
  137.853,652.242 1952.76,652.242 
  "/>
<polyline clip-path="url(#clip372)" style="stroke:#000000; stroke-width:2; stroke-opacity:0.1; fill:none" points="
  137.853,445.229 1952.76,445.229 
  "/>
<polyline clip-path="url(#clip372)" style="stroke:#000000; stroke-width:2; stroke-opacity:0.1; fill:none" points="
  137.853,238.216 1952.76,238.216 
  "/>
<polyline clip-path="url(#clip370)" style="stroke:#000000; stroke-width:4; stroke-opacity:1; fill:none" points="
  137.853,1093.9 137.853,117.424 
  "/>
<polyline clip-path="url(#clip370)" style="stroke:#000000; stroke-width:4; stroke-opacity:1; fill:none" points="
  137.853,1066.27 159.632,1066.27 
  "/>
<polyline clip-path="url(#clip370)" style="stroke:#000000; stroke-width:4; stroke-opacity:1; fill:none" points="
  137.853,859.255 159.632,859.255 
  "/>
<polyline clip-path="url(#clip370)" style="stroke:#000000; stroke-width:4; stroke-opacity:1; fill:none" points="
  137.853,652.242 159.632,652.242 
  "/>
<polyline clip-path="url(#clip370)" style="stroke:#000000; stroke-width:4; stroke-opacity:1; fill:none" points="
  137.853,445.229 159.632,445.229 
  "/>
<polyline clip-path="url(#clip370)" style="stroke:#000000; stroke-width:4; stroke-opacity:1; fill:none" points="
  137.853,238.216 159.632,238.216 
  "/>
<path clip-path="url(#clip370)" d="M 0 0 M95.9086 1052.07 Q92.2975 1052.07 90.4688 1055.63 Q88.6632 1059.17 88.6632 1066.3 Q88.6632 1073.41 90.4688 1076.97 Q92.2975 1080.52 95.9086 1080.52 Q99.5428 1080.52 101.348 1076.97 Q103.177 1073.41 103.177 1066.3 Q103.177 1059.17 101.348 1055.63 Q99.5428 1052.07 95.9086 1052.07 M95.9086 1048.36 Q101.719 1048.36 104.774 1052.97 Q107.853 1057.55 107.853 1066.3 Q107.853 1075.03 104.774 1079.64 Q101.719 1084.22 95.9086 1084.22 Q90.0984 1084.22 87.0197 1079.64 Q83.9642 1075.03 83.9642 1066.3 Q83.9642 1057.55 87.0197 1052.97 Q90.0984 1048.36 95.9086 1048.36 Z" fill="#000000" fill-rule="evenodd" fill-opacity="1" /><path clip-path="url(#clip370)" d="M 0 0 M59.7745 872.6 L76.0939 872.6 L76.0939 876.535 L54.1495 876.535 L54.1495 872.6 Q56.8115 869.845 61.3949 865.215 Q66.0013 860.563 67.1819 859.22 Q69.4272 856.697 70.3068 854.961 Q71.2096 853.202 71.2096 851.512 Q71.2096 848.757 69.2652 847.021 Q67.3439 845.285 64.2421 845.285 Q62.043 845.285 59.5893 846.049 Q57.1588 846.813 54.381 848.364 L54.381 843.641 Q57.2051 842.507 59.6588 841.928 Q62.1124 841.35 64.1495 841.35 Q69.5198 841.35 72.7142 844.035 Q75.9087 846.72 75.9087 851.211 Q75.9087 853.34 75.0985 855.262 Q74.3115 857.16 72.205 859.752 Q71.6263 860.424 68.5245 863.641 Q65.4226 866.836 59.7745 872.6 Z" fill="#000000" fill-rule="evenodd" fill-opacity="1" /><path clip-path="url(#clip370)" d="M 0 0 M95.9086 845.053 Q92.2975 845.053 90.4688 848.618 Q88.6632 852.16 88.6632 859.289 Q88.6632 866.396 90.4688 869.961 Q92.2975 873.502 95.9086 873.502 Q99.5428 873.502 101.348 869.961 Q103.177 866.396 103.177 859.289 Q103.177 852.16 101.348 848.618 Q99.5428 845.053 95.9086 845.053 M95.9086 841.35 Q101.719 841.35 104.774 845.956 Q107.853 850.54 107.853 859.289 Q107.853 868.016 104.774 872.623 Q101.719 877.206 95.9086 877.206 Q90.0984 877.206 87.0197 872.623 Q83.9642 868.016 83.9642 859.289 Q83.9642 850.54 87.0197 845.956 Q90.0984 841.35 95.9086 841.35 Z" fill="#000000" fill-rule="evenodd" fill-opacity="1" /><path clip-path="url(#clip370)" d="M 0 0 M68.5939 639.036 L56.7884 657.485 L68.5939 657.485 L68.5939 639.036 M67.367 634.962 L73.2466 634.962 L73.2466 657.485 L78.1772 657.485 L78.1772 661.374 L73.2466 661.374 L73.2466 669.522 L68.5939 669.522 L68.5939 661.374 L52.9921 661.374 L52.9921 656.86 L67.367 634.962 Z" fill="#000000" fill-rule="evenodd" fill-opacity="1" /><path clip-path="url(#clip370)" d="M 0 0 M95.9086 638.041 Q92.2975 638.041 90.4688 641.605 Q88.6632 645.147 88.6632 652.277 Q88.6632 659.383 90.4688 662.948 Q92.2975 666.49 95.9086 666.49 Q99.5428 666.49 101.348 662.948 Q103.177 659.383 103.177 652.277 Q103.177 645.147 101.348 641.605 Q99.5428 638.041 95.9086 638.041 M95.9086 634.337 Q101.719 634.337 104.774 638.943 Q107.853 643.527 107.853 652.277 Q107.853 661.003 104.774 665.61 Q101.719 670.193 95.9086 670.193 Q90.0984 670.193 87.0197 665.61 Q83.9642 661.003 83.9642 652.277 Q83.9642 643.527 87.0197 638.943 Q90.0984 634.337 95.9086 634.337 Z" fill="#000000" fill-rule="evenodd" fill-opacity="1" /><path clip-path="url(#clip370)" d="M 0 0 M66.3254 443.366 Q63.1773 443.366 61.3254 445.518 Q59.4967 447.671 59.4967 451.421 Q59.4967 455.148 61.3254 457.324 Q63.1773 459.477 66.3254 459.477 Q69.4735 459.477 71.3022 457.324 Q73.1541 455.148 73.1541 451.421 Q73.1541 447.671 71.3022 445.518 Q69.4735 443.366 66.3254 443.366 M75.6077 428.713 L75.6077 432.972 Q73.8485 432.139 72.0429 431.699 Q70.2606 431.259 68.5013 431.259 Q63.8717 431.259 61.418 434.384 Q58.9875 437.509 58.6402 443.829 Q60.006 441.815 62.0662 440.75 Q64.1263 439.662 66.6032 439.662 Q71.8115 439.662 74.8207 442.833 Q77.8531 445.981 77.8531 451.421 Q77.8531 456.745 74.705 459.963 Q71.5568 463.18 66.3254 463.18 Q60.33 463.18 57.1588 458.597 Q53.9875 453.991 53.9875 445.264 Q53.9875 437.069 57.8764 432.208 Q61.7652 427.324 68.3161 427.324 Q70.0754 427.324 71.8578 427.671 Q73.6633 428.018 75.6077 428.713 Z" fill="#000000" fill-rule="evenodd" fill-opacity="1" /><path clip-path="url(#clip370)" d="M 0 0 M95.9086 431.028 Q92.2975 431.028 90.4688 434.593 Q88.6632 438.134 88.6632 445.264 Q88.6632 452.37 90.4688 455.935 Q92.2975 459.477 95.9086 459.477 Q99.5428 459.477 101.348 455.935 Q103.177 452.37 103.177 445.264 Q103.177 438.134 101.348 434.593 Q99.5428 431.028 95.9086 431.028 M95.9086 427.324 Q101.719 427.324 104.774 431.93 Q107.853 436.514 107.853 445.264 Q107.853 453.991 104.774 458.597 Q101.719 463.18 95.9086 463.18 Q90.0984 463.18 87.0197 458.597 Q83.9642 453.991 83.9642 445.264 Q83.9642 436.514 87.0197 431.93 Q90.0984 427.324 95.9086 427.324 Z" fill="#000000" fill-rule="evenodd" fill-opacity="1" /><path clip-path="url(#clip370)" d="M 0 0 M65.7467 239.084 Q62.4134 239.084 60.4921 240.867 Q58.5939 242.649 58.5939 245.774 Q58.5939 248.899 60.4921 250.681 Q62.4134 252.464 65.7467 252.464 Q69.08 252.464 71.0013 250.681 Q72.9226 248.876 72.9226 245.774 Q72.9226 242.649 71.0013 240.867 Q69.1032 239.084 65.7467 239.084 M61.0708 237.093 Q58.0615 236.353 56.3717 234.293 Q54.7051 232.232 54.7051 229.269 Q54.7051 225.126 57.6449 222.719 Q60.6078 220.311 65.7467 220.311 Q70.9087 220.311 73.8485 222.719 Q76.7883 225.126 76.7883 229.269 Q76.7883 232.232 75.0985 234.293 Q73.4318 236.353 70.4457 237.093 Q73.8253 237.88 75.7003 240.172 Q77.5985 242.464 77.5985 245.774 Q77.5985 250.797 74.5198 253.482 Q71.4642 256.167 65.7467 256.167 Q60.0291 256.167 56.9504 253.482 Q53.8949 250.797 53.8949 245.774 Q53.8949 242.464 55.793 240.172 Q57.6912 237.88 61.0708 237.093 M59.3578 229.709 Q59.3578 232.394 61.0245 233.899 Q62.7143 235.404 65.7467 235.404 Q68.7559 235.404 70.4457 233.899 Q72.1587 232.394 72.1587 229.709 Q72.1587 227.024 70.4457 225.519 Q68.7559 224.015 65.7467 224.015 Q62.7143 224.015 61.0245 225.519 Q59.3578 227.024 59.3578 229.709 Z" fill="#000000" fill-rule="evenodd" fill-opacity="1" /><path clip-path="url(#clip370)" d="M 0 0 M95.9086 224.015 Q92.2975 224.015 90.4688 227.58 Q88.6632 231.121 88.6632 238.251 Q88.6632 245.357 90.4688 248.922 Q92.2975 252.464 95.9086 252.464 Q99.5428 252.464 101.348 248.922 Q103.177 245.357 103.177 238.251 Q103.177 231.121 101.348 227.58 Q99.5428 224.015 95.9086 224.015 M95.9086 220.311 Q101.719 220.311 104.774 224.918 Q107.853 229.501 107.853 238.251 Q107.853 246.978 104.774 251.584 Q101.719 256.167 95.9086 256.167 Q90.0984 256.167 87.0197 251.584 Q83.9642 246.978 83.9642 238.251 Q83.9642 229.501 87.0197 224.918 Q90.0984 220.311 95.9086 220.311 Z" fill="#000000" fill-rule="evenodd" fill-opacity="1" /><path clip-path="url(#clip370)" d="M 0 0 M484.457 12.096 L492.64 12.096 L492.64 36.8875 L522.373 36.8875 L522.373 12.096 L530.556 12.096 L530.556 72.576 L522.373 72.576 L522.373 43.7741 L492.64 43.7741 L492.64 72.576 L484.457 72.576 L484.457 12.096 Z" fill="#000000" fill-rule="evenodd" fill-opacity="1" /><path clip-path="url(#clip370)" d="M 0 0 M546.517 27.2059 L553.97 27.2059 L553.97 72.576 L546.517 72.576 L546.517 27.2059 M546.517 9.54393 L553.97 9.54393 L553.97 18.9825 L546.517 18.9825 L546.517 9.54393 Z" fill="#000000" fill-rule="evenodd" fill-opacity="1" /><path clip-path="url(#clip370)" d="M 0 0 M598.49 28.5427 L598.49 35.5912 Q595.33 33.9709 591.927 33.1607 Q588.524 32.3505 584.879 32.3505 Q579.329 32.3505 576.534 34.0519 Q573.779 35.7533 573.779 39.156 Q573.779 41.7486 575.764 43.2475 Q577.749 44.7058 583.744 46.0426 L586.296 46.6097 Q594.236 48.3111 597.558 51.4303 Q600.92 54.509 600.92 60.0587 Q600.92 66.3781 595.897 70.0644 Q590.914 73.7508 582.165 73.7508 Q578.519 73.7508 574.549 73.0216 Q570.619 72.3329 566.244 70.9151 L566.244 63.2184 Q570.376 65.3654 574.387 66.4591 Q578.397 67.5124 582.327 67.5124 Q587.593 67.5124 590.428 65.73 Q593.264 63.9071 593.264 60.6258 Q593.264 57.5877 591.198 55.9673 Q589.173 54.3469 582.246 52.8481 L579.653 52.2405 Q572.726 50.7821 569.647 47.7845 Q566.569 44.7463 566.569 39.4801 Q566.569 33.0797 571.106 29.5959 Q575.643 26.1121 583.987 26.1121 Q588.119 26.1121 591.765 26.7198 Q595.411 27.3274 598.49 28.5427 Z" fill="#000000" fill-rule="evenodd" fill-opacity="1" /><path clip-path="url(#clip370)" d="M 0 0 M620.162 14.324 L620.162 27.2059 L635.515 27.2059 L635.515 32.9987 L620.162 32.9987 L620.162 57.6282 Q620.162 63.1779 621.661 64.7578 Q623.2 66.3376 627.859 66.3376 L635.515 66.3376 L635.515 72.576 L627.859 72.576 Q619.23 72.576 615.949 69.3758 Q612.668 66.1351 612.668 57.6282 L612.668 32.9987 L607.199 32.9987 L607.199 27.2059 L612.668 27.2059 L612.668 14.324 L620.162 14.324 Z" fill="#000000" fill-rule="evenodd" fill-opacity="1" /><path clip-path="url(#clip370)" d="M 0 0 M662.899 32.4315 Q656.904 32.4315 653.42 37.1306 Q649.936 41.7891 649.936 49.9314 Q649.936 58.0738 653.379 62.7728 Q656.863 67.4314 662.899 67.4314 Q668.854 67.4314 672.338 62.7323 Q675.821 58.0333 675.821 49.9314 Q675.821 41.8701 672.338 37.1711 Q668.854 32.4315 662.899 32.4315 M662.899 26.1121 Q672.621 26.1121 678.171 32.4315 Q683.721 38.7509 683.721 49.9314 Q683.721 61.0714 678.171 67.4314 Q672.621 73.7508 662.899 73.7508 Q653.136 73.7508 647.587 67.4314 Q642.077 61.0714 642.077 49.9314 Q642.077 38.7509 647.587 32.4315 Q653.136 26.1121 662.899 26.1121 Z" fill="#000000" fill-rule="evenodd" fill-opacity="1" /><path clip-path="url(#clip370)" d="M 0 0 M725.931 49.3643 Q725.931 41.2625 722.569 36.8065 Q719.247 32.3505 713.211 32.3505 Q707.216 32.3505 703.854 36.8065 Q700.532 41.2625 700.532 49.3643 Q700.532 57.4256 703.854 61.8816 Q707.216 66.3376 713.211 66.3376 Q719.247 66.3376 722.569 61.8816 Q725.931 57.4256 725.931 49.3643 M733.385 66.9452 Q733.385 78.5308 728.24 84.1616 Q723.096 89.8329 712.482 89.8329 Q708.553 89.8329 705.069 89.2252 Q701.585 88.6581 698.304 87.4428 L698.304 80.1917 Q701.585 81.9741 704.785 82.8248 Q707.986 83.6755 711.307 83.6755 Q718.64 83.6755 722.285 79.8271 Q725.931 76.0193 725.931 68.282 L725.931 64.5957 Q723.622 68.6061 720.017 70.5911 Q716.412 72.576 711.388 72.576 Q703.044 72.576 697.939 66.2161 Q692.835 59.8562 692.835 49.3643 Q692.835 38.832 697.939 32.472 Q703.044 26.1121 711.388 26.1121 Q716.412 26.1121 720.017 28.0971 Q723.622 30.082 725.931 34.0924 L725.931 27.2059 L733.385 27.2059 L733.385 66.9452 Z" fill="#000000" fill-rule="evenodd" fill-opacity="1" /><path clip-path="url(#clip370)" d="M 0 0 M775.028 34.1734 Q773.772 33.4443 772.273 33.1202 Q770.815 32.7556 769.033 32.7556 Q762.713 32.7556 759.311 36.8875 Q755.948 40.9789 755.948 48.6757 L755.948 72.576 L748.454 72.576 L748.454 27.2059 L755.948 27.2059 L755.948 34.2544 Q758.298 30.1225 762.065 28.1376 Q765.833 26.1121 771.22 26.1121 Q771.99 26.1121 772.922 26.2337 Q773.853 26.3147 774.988 26.5172 L775.028 34.1734 Z" fill="#000000" fill-rule="evenodd" fill-opacity="1" /><path clip-path="url(#clip370)" d="M 0 0 M803.465 49.7694 Q794.432 49.7694 790.948 51.8354 Q787.464 53.9013 787.464 58.8839 Q787.464 62.8538 790.057 65.2034 Q792.69 67.5124 797.187 67.5124 Q803.384 67.5124 807.111 63.1374 Q810.879 58.7219 810.879 51.4303 L810.879 49.7694 L803.465 49.7694 M818.332 46.6907 L818.332 72.576 L810.879 72.576 L810.879 65.6895 Q808.327 69.8214 804.519 71.8063 Q800.711 73.7508 795.202 73.7508 Q788.234 73.7508 784.102 69.8619 Q780.011 65.9325 780.011 59.3701 Q780.011 51.7138 785.115 47.825 Q790.259 43.9361 800.427 43.9361 L810.879 43.9361 L810.879 43.2069 Q810.879 38.0623 807.476 35.2672 Q804.114 32.4315 797.997 32.4315 Q794.108 32.4315 790.422 33.3632 Q786.735 34.295 783.332 36.1584 L783.332 29.2718 Q787.424 27.692 791.272 26.9223 Q795.121 26.1121 798.766 26.1121 Q808.61 26.1121 813.471 31.2163 Q818.332 36.3204 818.332 46.6907 Z" fill="#000000" fill-rule="evenodd" fill-opacity="1" /><path clip-path="url(#clip370)" d="M 0 0 M869.009 35.9153 Q871.804 30.8922 875.693 28.5022 Q879.582 26.1121 884.848 26.1121 Q891.937 26.1121 895.786 31.0947 Q899.634 36.0368 899.634 45.1919 L899.634 72.576 L892.14 72.576 L892.14 45.4349 Q892.14 38.913 889.831 35.7533 Q887.522 32.5936 882.782 32.5936 Q876.989 32.5936 873.627 36.4419 Q870.265 40.2903 870.265 46.9338 L870.265 72.576 L862.771 72.576 L862.771 45.4349 Q862.771 38.8725 860.462 35.7533 Q858.153 32.5936 853.332 32.5936 Q847.62 32.5936 844.258 36.4824 Q840.896 40.3308 840.896 46.9338 L840.896 72.576 L833.402 72.576 L833.402 27.2059 L840.896 27.2059 L840.896 34.2544 Q843.448 30.082 847.013 28.0971 Q850.577 26.1121 855.479 26.1121 Q860.421 26.1121 863.864 28.6237 Q867.348 31.1352 869.009 35.9153 Z" fill="#000000" fill-rule="evenodd" fill-opacity="1" /><path clip-path="url(#clip370)" d="M 0 0 M958.453 32.4315 Q952.458 32.4315 948.974 37.1306 Q945.49 41.7891 945.49 49.9314 Q945.49 58.0738 948.933 62.7728 Q952.417 67.4314 958.453 67.4314 Q964.408 67.4314 967.892 62.7323 Q971.375 58.0333 971.375 49.9314 Q971.375 41.8701 967.892 37.1711 Q964.408 32.4315 958.453 32.4315 M958.453 26.1121 Q968.175 26.1121 973.725 32.4315 Q979.275 38.7509 979.275 49.9314 Q979.275 61.0714 973.725 67.4314 Q968.175 73.7508 958.453 73.7508 Q948.69 73.7508 943.141 67.4314 Q937.631 61.0714 937.631 49.9314 Q937.631 38.7509 943.141 32.4315 Q948.69 26.1121 958.453 26.1121 Z" fill="#000000" fill-rule="evenodd" fill-opacity="1" /><path clip-path="url(#clip370)" d="M 0 0 M1014.6 9.54393 L1014.6 15.7418 L1007.47 15.7418 Q1003.46 15.7418 1001.88 17.3622 Q1000.34 18.9825 1000.34 23.1955 L1000.34 27.2059 L1012.61 27.2059 L1012.61 32.9987 L1000.34 32.9987 L1000.34 72.576 L992.845 72.576 L992.845 32.9987 L985.716 32.9987 L985.716 27.2059 L992.845 27.2059 L992.845 24.0462 Q992.845 16.471 996.37 13.0277 Q999.894 9.54393 1007.55 9.54393 L1014.6 9.54393 Z" fill="#000000" fill-rule="evenodd" fill-opacity="1" /><path clip-path="url(#clip370)" d="M 0 0 M1054.58 14.324 L1054.58 27.2059 L1069.93 27.2059 L1069.93 32.9987 L1054.58 32.9987 L1054.58 57.6282 Q1054.58 63.1779 1056.08 64.7578 Q1057.62 66.3376 1062.28 66.3376 L1069.93 66.3376 L1069.93 72.576 L1062.28 72.576 Q1053.65 72.576 1050.37 69.3758 Q1047.09 66.1351 1047.09 57.6282 L1047.09 32.9987 L1041.62 32.9987 L1041.62 27.2059 L1047.09 27.2059 L1047.09 14.324 L1054.58 14.324 Z" fill="#000000" fill-rule="evenodd" fill-opacity="1" /><path clip-path="url(#clip370)" d="M 0 0 M1117.45 45.1919 L1117.45 72.576 L1110 72.576 L1110 45.4349 Q1110 38.994 1107.49 35.7938 Q1104.97 32.5936 1099.95 32.5936 Q1093.92 32.5936 1090.43 36.4419 Q1086.95 40.2903 1086.95 46.9338 L1086.95 72.576 L1079.45 72.576 L1079.45 9.54393 L1086.95 9.54393 L1086.95 34.2544 Q1089.62 30.163 1093.23 28.1376 Q1096.87 26.1121 1101.61 26.1121 Q1109.43 26.1121 1113.44 30.9732 Q1117.45 35.7938 1117.45 45.1919 Z" fill="#000000" fill-rule="evenodd" fill-opacity="1" /><path clip-path="url(#clip370)" d="M 0 0 M1171.13 48.0275 L1171.13 51.6733 L1136.85 51.6733 Q1137.34 59.3701 1141.47 63.421 Q1145.65 67.4314 1153.06 67.4314 Q1157.35 67.4314 1161.36 66.3781 Q1165.41 65.3249 1169.38 63.2184 L1169.38 70.267 Q1165.37 71.9684 1161.16 72.8596 Q1156.95 73.7508 1152.61 73.7508 Q1141.76 73.7508 1135.4 67.4314 Q1129.08 61.1119 1129.08 50.3365 Q1129.08 39.1965 1135.07 32.6746 Q1141.11 26.1121 1151.32 26.1121 Q1160.47 26.1121 1165.78 32.0264 Q1171.13 37.9003 1171.13 48.0275 M1163.67 45.84 Q1163.59 39.7232 1160.23 36.0774 Q1156.91 32.4315 1151.4 32.4315 Q1145.16 32.4315 1141.39 35.9558 Q1137.67 39.4801 1137.1 45.8805 L1163.67 45.84 Z" fill="#000000" fill-rule="evenodd" fill-opacity="1" /><path clip-path="url(#clip370)" d="M 0 0 M1248.54 48.0275 L1248.54 51.6733 L1214.27 51.6733 Q1214.75 59.3701 1218.89 63.421 Q1223.06 67.4314 1230.47 67.4314 Q1234.77 67.4314 1238.78 66.3781 Q1242.83 65.3249 1246.8 63.2184 L1246.8 70.267 Q1242.79 71.9684 1238.57 72.8596 Q1234.36 73.7508 1230.03 73.7508 Q1219.17 73.7508 1212.81 67.4314 Q1206.49 61.1119 1206.49 50.3365 Q1206.49 39.1965 1212.49 32.6746 Q1218.52 26.1121 1228.73 26.1121 Q1237.88 26.1121 1243.19 32.0264 Q1248.54 37.9003 1248.54 48.0275 M1241.08 45.84 Q1241 39.7232 1237.64 36.0774 Q1234.32 32.4315 1228.81 32.4315 Q1222.57 32.4315 1218.8 35.9558 Q1215.08 39.4801 1214.51 45.8805 L1241.08 45.84 Z" fill="#000000" fill-rule="evenodd" fill-opacity="1" /><path clip-path="url(#clip370)" d="M 0 0 M1289.7 28.5427 L1289.7 35.5912 Q1286.54 33.9709 1283.13 33.1607 Q1279.73 32.3505 1276.08 32.3505 Q1270.53 32.3505 1267.74 34.0519 Q1264.98 35.7533 1264.98 39.156 Q1264.98 41.7486 1266.97 43.2475 Q1268.95 44.7058 1274.95 46.0426 L1277.5 46.6097 Q1285.44 48.3111 1288.76 51.4303 Q1292.13 54.509 1292.13 60.0587 Q1292.13 66.3781 1287.1 70.0644 Q1282.12 73.7508 1273.37 73.7508 Q1269.72 73.7508 1265.75 73.0216 Q1261.83 72.3329 1257.45 70.9151 L1257.45 63.2184 Q1261.58 65.3654 1265.59 66.4591 Q1269.6 67.5124 1273.53 67.5124 Q1278.8 67.5124 1281.63 65.73 Q1284.47 63.9071 1284.47 60.6258 Q1284.47 57.5877 1282.4 55.9673 Q1280.38 54.3469 1273.45 52.8481 L1270.86 52.2405 Q1263.93 50.7821 1260.85 47.7845 Q1257.77 44.7463 1257.77 39.4801 Q1257.77 33.0797 1262.31 29.5959 Q1266.85 26.1121 1275.19 26.1121 Q1279.33 26.1121 1282.97 26.7198 Q1286.62 27.3274 1289.7 28.5427 Z" fill="#000000" fill-rule="evenodd" fill-opacity="1" /><path clip-path="url(#clip370)" d="M 0 0 M1311.37 14.324 L1311.37 27.2059 L1326.72 27.2059 L1326.72 32.9987 L1311.37 32.9987 L1311.37 57.6282 Q1311.37 63.1779 1312.87 64.7578 Q1314.41 66.3376 1319.06 66.3376 L1326.72 66.3376 L1326.72 72.576 L1319.06 72.576 Q1310.44 72.576 1307.15 69.3758 Q1303.87 66.1351 1303.87 57.6282 L1303.87 32.9987 L1298.4 32.9987 L1298.4 27.2059 L1303.87 27.2059 L1303.87 14.324 L1311.37 14.324 Z" fill="#000000" fill-rule="evenodd" fill-opacity="1" /><path clip-path="url(#clip370)" d="M 0 0 M1336.52 27.2059 L1343.98 27.2059 L1343.98 72.576 L1336.52 72.576 L1336.52 27.2059 M1336.52 9.54393 L1343.98 9.54393 L1343.98 18.9825 L1336.52 18.9825 L1336.52 9.54393 Z" fill="#000000" fill-rule="evenodd" fill-opacity="1" /><path clip-path="url(#clip370)" d="M 0 0 M1394.9 35.9153 Q1397.69 30.8922 1401.58 28.5022 Q1405.47 26.1121 1410.74 26.1121 Q1417.83 26.1121 1421.67 31.0947 Q1425.52 36.0368 1425.52 45.1919 L1425.52 72.576 L1418.03 72.576 L1418.03 45.4349 Q1418.03 38.913 1415.72 35.7533 Q1413.41 32.5936 1408.67 32.5936 Q1402.88 32.5936 1399.52 36.4419 Q1396.15 40.2903 1396.15 46.9338 L1396.15 72.576 L1388.66 72.576 L1388.66 45.4349 Q1388.66 38.8725 1386.35 35.7533 Q1384.04 32.5936 1379.22 32.5936 Q1373.51 32.5936 1370.15 36.4824 Q1366.78 40.3308 1366.78 46.9338 L1366.78 72.576 L1359.29 72.576 L1359.29 27.2059 L1366.78 27.2059 L1366.78 34.2544 Q1369.34 30.082 1372.9 28.0971 Q1376.47 26.1121 1381.37 26.1121 Q1386.31 26.1121 1389.75 28.6237 Q1393.24 31.1352 1394.9 35.9153 Z" fill="#000000" fill-rule="evenodd" fill-opacity="1" /><path clip-path="url(#clip370)" d="M 0 0 M1461.01 49.7694 Q1451.97 49.7694 1448.49 51.8354 Q1445.01 53.9013 1445.01 58.8839 Q1445.01 62.8538 1447.6 65.2034 Q1450.23 67.5124 1454.73 67.5124 Q1460.93 67.5124 1464.65 63.1374 Q1468.42 58.7219 1468.42 51.4303 L1468.42 49.7694 L1461.01 49.7694 M1475.88 46.6907 L1475.88 72.576 L1468.42 72.576 L1468.42 65.6895 Q1465.87 69.8214 1462.06 71.8063 Q1458.25 73.7508 1452.74 73.7508 Q1445.78 73.7508 1441.64 69.8619 Q1437.55 65.9325 1437.55 59.3701 Q1437.55 51.7138 1442.66 47.825 Q1447.8 43.9361 1457.97 43.9361 L1468.42 43.9361 L1468.42 43.2069 Q1468.42 38.0623 1465.02 35.2672 Q1461.66 32.4315 1455.54 32.4315 Q1451.65 32.4315 1447.96 33.3632 Q1444.28 34.295 1440.88 36.1584 L1440.88 29.2718 Q1444.97 27.692 1448.81 26.9223 Q1452.66 26.1121 1456.31 26.1121 Q1466.15 26.1121 1471.01 31.2163 Q1475.88 36.3204 1475.88 46.6907 Z" fill="#000000" fill-rule="evenodd" fill-opacity="1" /><path clip-path="url(#clip370)" d="M 0 0 M1498.6 14.324 L1498.6 27.2059 L1513.95 27.2059 L1513.95 32.9987 L1498.6 32.9987 L1498.6 57.6282 Q1498.6 63.1779 1500.1 64.7578 Q1501.64 66.3376 1506.3 66.3376 L1513.95 66.3376 L1513.95 72.576 L1506.3 72.576 Q1497.67 72.576 1494.39 69.3758 Q1491.11 66.1351 1491.11 57.6282 L1491.11 32.9987 L1485.64 32.9987 L1485.64 27.2059 L1491.11 27.2059 L1491.11 14.324 L1498.6 14.324 Z" fill="#000000" fill-rule="evenodd" fill-opacity="1" /><path clip-path="url(#clip370)" d="M 0 0 M1562.56 48.0275 L1562.56 51.6733 L1528.29 51.6733 Q1528.78 59.3701 1532.91 63.421 Q1537.08 67.4314 1544.5 67.4314 Q1548.79 67.4314 1552.8 66.3781 Q1556.85 65.3249 1560.82 63.2184 L1560.82 70.267 Q1556.81 71.9684 1552.6 72.8596 Q1548.39 73.7508 1544.05 73.7508 Q1533.2 73.7508 1526.84 67.4314 Q1520.52 61.1119 1520.52 50.3365 Q1520.52 39.1965 1526.51 32.6746 Q1532.55 26.1121 1542.76 26.1121 Q1551.91 26.1121 1557.22 32.0264 Q1562.56 37.9003 1562.56 48.0275 M1555.11 45.84 Q1555.03 39.7232 1551.67 36.0774 Q1548.35 32.4315 1542.84 32.4315 Q1536.6 32.4315 1532.83 35.9558 Q1529.1 39.4801 1528.54 45.8805 L1555.11 45.84 Z" fill="#000000" fill-rule="evenodd" fill-opacity="1" /><path clip-path="url(#clip370)" d="M 0 0 M1603.72 28.5427 L1603.72 35.5912 Q1600.56 33.9709 1597.16 33.1607 Q1593.76 32.3505 1590.11 32.3505 Q1584.56 32.3505 1581.77 34.0519 Q1579.01 35.7533 1579.01 39.156 Q1579.01 41.7486 1581 43.2475 Q1582.98 44.7058 1588.98 46.0426 L1591.53 46.6097 Q1599.47 48.3111 1602.79 51.4303 Q1606.15 54.509 1606.15 60.0587 Q1606.15 66.3781 1601.13 70.0644 Q1596.15 73.7508 1587.4 73.7508 Q1583.75 73.7508 1579.78 73.0216 Q1575.85 72.3329 1571.48 70.9151 L1571.48 63.2184 Q1575.61 65.3654 1579.62 66.4591 Q1583.63 67.5124 1587.56 67.5124 Q1592.82 67.5124 1595.66 65.73 Q1598.5 63.9071 1598.5 60.6258 Q1598.5 57.5877 1596.43 55.9673 Q1594.4 54.3469 1587.48 52.8481 L1584.88 52.2405 Q1577.96 50.7821 1574.88 47.7845 Q1571.8 44.7463 1571.8 39.4801 Q1571.8 33.0797 1576.34 29.5959 Q1580.87 26.1121 1589.22 26.1121 Q1593.35 26.1121 1597 26.7198 Q1600.64 27.3274 1603.72 28.5427 Z" fill="#000000" fill-rule="evenodd" fill-opacity="1" /><path clip-path="url(#clip372)" d="
M232.835 1055.92 L232.835 1066.27 L275.596 1066.27 L275.596 1055.92 L232.835 1055.92 L232.835 1055.92  Z
  " fill="#009af9" fill-rule="evenodd" fill-opacity="0.7"/>
<polyline clip-path="url(#clip372)" style="stroke:#000000; stroke-width:4; stroke-opacity:0.7; fill:none" points="
  232.835,1055.92 232.835,1066.27 275.596,1066.27 275.596,1055.92 232.835,1055.92 
  "/>
<path clip-path="url(#clip372)" d="
M275.596 1066.27 L275.596 1066.27 L318.358 1066.27 L318.358 1066.27 L275.596 1066.27 L275.596 1066.27  Z
  " fill="#009af9" fill-rule="evenodd" fill-opacity="0.7"/>
<polyline clip-path="url(#clip372)" style="stroke:#000000; stroke-width:4; stroke-opacity:0.7; fill:none" points="
  275.596,1066.27 275.596,1066.27 318.358,1066.27 275.596,1066.27 
  "/>
<path clip-path="url(#clip372)" d="
M318.358 1066.27 L318.358 1066.27 L361.12 1066.27 L361.12 1066.27 L318.358 1066.27 L318.358 1066.27  Z
  " fill="#009af9" fill-rule="evenodd" fill-opacity="0.7"/>
<polyline clip-path="url(#clip372)" style="stroke:#000000; stroke-width:4; stroke-opacity:0.7; fill:none" points="
  318.358,1066.27 318.358,1066.27 361.12,1066.27 318.358,1066.27 
  "/>
<path clip-path="url(#clip372)" d="
M361.12 1066.27 L361.12 1066.27 L403.881 1066.27 L403.881 1066.27 L361.12 1066.27 L361.12 1066.27  Z
  " fill="#009af9" fill-rule="evenodd" fill-opacity="0.7"/>
<polyline clip-path="url(#clip372)" style="stroke:#000000; stroke-width:4; stroke-opacity:0.7; fill:none" points="
  361.12,1066.27 361.12,1066.27 403.881,1066.27 361.12,1066.27 
  "/>
<path clip-path="url(#clip372)" d="
M403.881 1055.92 L403.881 1066.27 L446.643 1066.27 L446.643 1055.92 L403.881 1055.92 L403.881 1055.92  Z
  " fill="#009af9" fill-rule="evenodd" fill-opacity="0.7"/>
<polyline clip-path="url(#clip372)" style="stroke:#000000; stroke-width:4; stroke-opacity:0.7; fill:none" points="
  403.881,1055.92 403.881,1066.27 446.643,1066.27 446.643,1055.92 403.881,1055.92 
  "/>
<path clip-path="url(#clip372)" d="
M446.643 1014.51 L446.643 1066.27 L489.404 1066.27 L489.404 1014.51 L446.643 1014.51 L446.643 1014.51  Z
  " fill="#009af9" fill-rule="evenodd" fill-opacity="0.7"/>
<polyline clip-path="url(#clip372)" style="stroke:#000000; stroke-width:4; stroke-opacity:0.7; fill:none" points="
  446.643,1014.51 446.643,1066.27 489.404,1066.27 489.404,1014.51 446.643,1014.51 
  "/>
<path clip-path="url(#clip372)" d="
M489.404 1045.57 L489.404 1066.27 L532.166 1066.27 L532.166 1045.57 L489.404 1045.57 L489.404 1045.57  Z
  " fill="#009af9" fill-rule="evenodd" fill-opacity="0.7"/>
<polyline clip-path="url(#clip372)" style="stroke:#000000; stroke-width:4; stroke-opacity:0.7; fill:none" points="
  489.404,1045.57 489.404,1066.27 532.166,1066.27 532.166,1045.57 489.404,1045.57 
  "/>
<path clip-path="url(#clip372)" d="
M532.166 1004.16 L532.166 1066.27 L574.927 1066.27 L574.927 1004.16 L532.166 1004.16 L532.166 1004.16  Z
  " fill="#009af9" fill-rule="evenodd" fill-opacity="0.7"/>
<polyline clip-path="url(#clip372)" style="stroke:#000000; stroke-width:4; stroke-opacity:0.7; fill:none" points="
  532.166,1004.16 532.166,1066.27 574.927,1066.27 574.927,1004.16 532.166,1004.16 
  "/>
<path clip-path="url(#clip372)" d="
M574.927 1004.16 L574.927 1066.27 L617.689 1066.27 L617.689 1004.16 L574.927 1004.16 L574.927 1004.16  Z
  " fill="#009af9" fill-rule="evenodd" fill-opacity="0.7"/>
<polyline clip-path="url(#clip372)" style="stroke:#000000; stroke-width:4; stroke-opacity:0.7; fill:none" points="
  574.927,1004.16 574.927,1066.27 617.689,1066.27 617.689,1004.16 574.927,1004.16 
  "/>
<path clip-path="url(#clip372)" d="
M617.689 869.605 L617.689 1066.27 L660.45 1066.27 L660.45 869.605 L617.689 869.605 L617.689 869.605  Z
  " fill="#009af9" fill-rule="evenodd" fill-opacity="0.7"/>
<polyline clip-path="url(#clip372)" style="stroke:#000000; stroke-width:4; stroke-opacity:0.7; fill:none" points="
  617.689,869.605 617.689,1066.27 660.45,1066.27 660.45,869.605 617.689,869.605 
  "/>
<path clip-path="url(#clip372)" d="
M660.45 890.307 L660.45 1066.27 L703.212 1066.27 L703.212 890.307 L660.45 890.307 L660.45 890.307  Z
  " fill="#009af9" fill-rule="evenodd" fill-opacity="0.7"/>
<polyline clip-path="url(#clip372)" style="stroke:#000000; stroke-width:4; stroke-opacity:0.7; fill:none" points="
  660.45,890.307 660.45,1066.27 703.212,1066.27 703.212,890.307 660.45,890.307 
  "/>
<path clip-path="url(#clip372)" d="
M703.212 745.398 L703.212 1066.27 L745.974 1066.27 L745.974 745.398 L703.212 745.398 L703.212 745.398  Z
  " fill="#009af9" fill-rule="evenodd" fill-opacity="0.7"/>
<polyline clip-path="url(#clip372)" style="stroke:#000000; stroke-width:4; stroke-opacity:0.7; fill:none" points="
  703.212,745.398 703.212,1066.27 745.974,1066.27 745.974,745.398 703.212,745.398 
  "/>
<path clip-path="url(#clip372)" d="
M745.974 528.034 L745.974 1066.27 L788.735 1066.27 L788.735 528.034 L745.974 528.034 L745.974 528.034  Z
  " fill="#009af9" fill-rule="evenodd" fill-opacity="0.7"/>
<polyline clip-path="url(#clip372)" style="stroke:#000000; stroke-width:4; stroke-opacity:0.7; fill:none" points="
  745.974,528.034 745.974,1066.27 788.735,1066.27 788.735,528.034 745.974,528.034 
  "/>
<path clip-path="url(#clip372)" d="
M788.735 517.684 L788.735 1066.27 L831.497 1066.27 L831.497 517.684 L788.735 517.684 L788.735 517.684  Z
  " fill="#009af9" fill-rule="evenodd" fill-opacity="0.7"/>
<polyline clip-path="url(#clip372)" style="stroke:#000000; stroke-width:4; stroke-opacity:0.7; fill:none" points="
  788.735,517.684 788.735,1066.27 831.497,1066.27 831.497,517.684 788.735,517.684 
  "/>
<path clip-path="url(#clip372)" d="
M831.497 403.826 L831.497 1066.27 L874.258 1066.27 L874.258 403.826 L831.497 403.826 L831.497 403.826  Z
  " fill="#009af9" fill-rule="evenodd" fill-opacity="0.7"/>
<polyline clip-path="url(#clip372)" style="stroke:#000000; stroke-width:4; stroke-opacity:0.7; fill:none" points="
  831.497,403.826 831.497,1066.27 874.258,1066.27 874.258,403.826 831.497,403.826 
  "/>
<path clip-path="url(#clip372)" d="
M874.258 403.826 L874.258 1066.27 L917.02 1066.27 L917.02 403.826 L874.258 403.826 L874.258 403.826  Z
  " fill="#009af9" fill-rule="evenodd" fill-opacity="0.7"/>
<polyline clip-path="url(#clip372)" style="stroke:#000000; stroke-width:4; stroke-opacity:0.7; fill:none" points="
  874.258,403.826 874.258,1066.27 917.02,1066.27 917.02,403.826 874.258,403.826 
  "/>
<path clip-path="url(#clip372)" d="
M917.02 434.878 L917.02 1066.27 L959.781 1066.27 L959.781 434.878 L917.02 434.878 L917.02 434.878  Z
  " fill="#009af9" fill-rule="evenodd" fill-opacity="0.7"/>
<polyline clip-path="url(#clip372)" style="stroke:#000000; stroke-width:4; stroke-opacity:0.7; fill:none" points="
  917.02,434.878 917.02,1066.27 959.781,1066.27 959.781,434.878 917.02,434.878 
  "/>
<path clip-path="url(#clip372)" d="
M959.781 145.06 L959.781 1066.27 L1002.54 1066.27 L1002.54 145.06 L959.781 145.06 L959.781 145.06  Z
  " fill="#009af9" fill-rule="evenodd" fill-opacity="0.7"/>
<polyline clip-path="url(#clip372)" style="stroke:#000000; stroke-width:4; stroke-opacity:0.7; fill:none" points="
  959.781,145.06 959.781,1066.27 1002.54,1066.27 1002.54,145.06 959.781,145.06 
  "/>
<path clip-path="url(#clip372)" d="
M1002.54 207.164 L1002.54 1066.27 L1045.3 1066.27 L1045.3 207.164 L1002.54 207.164 L1002.54 207.164  Z
  " fill="#009af9" fill-rule="evenodd" fill-opacity="0.7"/>
<polyline clip-path="url(#clip372)" style="stroke:#000000; stroke-width:4; stroke-opacity:0.7; fill:none" points="
  1002.54,207.164 1002.54,1066.27 1045.3,1066.27 1045.3,207.164 1002.54,207.164 
  "/>
<path clip-path="url(#clip372)" d="
M1045.3 196.814 L1045.3 1066.27 L1088.07 1066.27 L1088.07 196.814 L1045.3 196.814 L1045.3 196.814  Z
  " fill="#009af9" fill-rule="evenodd" fill-opacity="0.7"/>
<polyline clip-path="url(#clip372)" style="stroke:#000000; stroke-width:4; stroke-opacity:0.7; fill:none" points="
  1045.3,196.814 1045.3,1066.27 1088.07,1066.27 1088.07,196.814 1045.3,196.814 
  "/>
<path clip-path="url(#clip372)" d="
M1088.07 383.125 L1088.07 1066.27 L1130.83 1066.27 L1130.83 383.125 L1088.07 383.125 L1088.07 383.125  Z
  " fill="#009af9" fill-rule="evenodd" fill-opacity="0.7"/>
<polyline clip-path="url(#clip372)" style="stroke:#000000; stroke-width:4; stroke-opacity:0.7; fill:none" points="
  1088.07,383.125 1088.07,1066.27 1130.83,1066.27 1130.83,383.125 1088.07,383.125 
  "/>
<path clip-path="url(#clip372)" d="
M1130.83 310.671 L1130.83 1066.27 L1173.59 1066.27 L1173.59 310.671 L1130.83 310.671 L1130.83 310.671  Z
  " fill="#009af9" fill-rule="evenodd" fill-opacity="0.7"/>
<polyline clip-path="url(#clip372)" style="stroke:#000000; stroke-width:4; stroke-opacity:0.7; fill:none" points="
  1130.83,310.671 1130.83,1066.27 1173.59,1066.27 1173.59,310.671 1130.83,310.671 
  "/>
<path clip-path="url(#clip372)" d="
M1173.59 424.528 L1173.59 1066.27 L1216.35 1066.27 L1216.35 424.528 L1173.59 424.528 L1173.59 424.528  Z
  " fill="#009af9" fill-rule="evenodd" fill-opacity="0.7"/>
<polyline clip-path="url(#clip372)" style="stroke:#000000; stroke-width:4; stroke-opacity:0.7; fill:none" points="
  1173.59,424.528 1173.59,1066.27 1216.35,1066.27 1216.35,424.528 1173.59,424.528 
  "/>
<path clip-path="url(#clip372)" d="
M1216.35 621.19 L1216.35 1066.27 L1259.11 1066.27 L1259.11 621.19 L1216.35 621.19 L1216.35 621.19  Z
  " fill="#009af9" fill-rule="evenodd" fill-opacity="0.7"/>
<polyline clip-path="url(#clip372)" style="stroke:#000000; stroke-width:4; stroke-opacity:0.7; fill:none" points="
  1216.35,621.19 1216.35,1066.27 1259.11,1066.27 1259.11,621.19 1216.35,621.19 
  "/>
<path clip-path="url(#clip372)" d="
M1259.11 745.398 L1259.11 1066.27 L1301.87 1066.27 L1301.87 745.398 L1259.11 745.398 L1259.11 745.398  Z
  " fill="#009af9" fill-rule="evenodd" fill-opacity="0.7"/>
<polyline clip-path="url(#clip372)" style="stroke:#000000; stroke-width:4; stroke-opacity:0.7; fill:none" points="
  1259.11,745.398 1259.11,1066.27 1301.87,1066.27 1301.87,745.398 1259.11,745.398 
  "/>
<path clip-path="url(#clip372)" d="
M1301.87 766.099 L1301.87 1066.27 L1344.64 1066.27 L1344.64 766.099 L1301.87 766.099 L1301.87 766.099  Z
  " fill="#009af9" fill-rule="evenodd" fill-opacity="0.7"/>
<polyline clip-path="url(#clip372)" style="stroke:#000000; stroke-width:4; stroke-opacity:0.7; fill:none" points="
  1301.87,766.099 1301.87,1066.27 1344.64,1066.27 1344.64,766.099 1301.87,766.099 
  "/>
<path clip-path="url(#clip372)" d="
M1344.64 879.956 L1344.64 1066.27 L1387.4 1066.27 L1387.4 879.956 L1344.64 879.956 L1344.64 879.956  Z
  " fill="#009af9" fill-rule="evenodd" fill-opacity="0.7"/>
<polyline clip-path="url(#clip372)" style="stroke:#000000; stroke-width:4; stroke-opacity:0.7; fill:none" points="
  1344.64,879.956 1344.64,1066.27 1387.4,1066.27 1387.4,879.956 1344.64,879.956 
  "/>
<path clip-path="url(#clip372)" d="
M1387.4 942.06 L1387.4 1066.27 L1430.16 1066.27 L1430.16 942.06 L1387.4 942.06 L1387.4 942.06  Z
  " fill="#009af9" fill-rule="evenodd" fill-opacity="0.7"/>
<polyline clip-path="url(#clip372)" style="stroke:#000000; stroke-width:4; stroke-opacity:0.7; fill:none" points="
  1387.4,942.06 1387.4,1066.27 1430.16,1066.27 1430.16,942.06 1387.4,942.06 
  "/>
<path clip-path="url(#clip372)" d="
M1430.16 911.008 L1430.16 1066.27 L1472.92 1066.27 L1472.92 911.008 L1430.16 911.008 L1430.16 911.008  Z
  " fill="#009af9" fill-rule="evenodd" fill-opacity="0.7"/>
<polyline clip-path="url(#clip372)" style="stroke:#000000; stroke-width:4; stroke-opacity:0.7; fill:none" points="
  1430.16,911.008 1430.16,1066.27 1472.92,1066.27 1472.92,911.008 1430.16,911.008 
  "/>
<path clip-path="url(#clip372)" d="
M1472.92 1004.16 L1472.92 1066.27 L1515.68 1066.27 L1515.68 1004.16 L1472.92 1004.16 L1472.92 1004.16  Z
  " fill="#009af9" fill-rule="evenodd" fill-opacity="0.7"/>
<polyline clip-path="url(#clip372)" style="stroke:#000000; stroke-width:4; stroke-opacity:0.7; fill:none" points="
  1472.92,1004.16 1472.92,1066.27 1515.68,1066.27 1515.68,1004.16 1472.92,1004.16 
  "/>
<path clip-path="url(#clip372)" d="
M1515.68 1024.87 L1515.68 1066.27 L1558.44 1066.27 L1558.44 1024.87 L1515.68 1024.87 L1515.68 1024.87  Z
  " fill="#009af9" fill-rule="evenodd" fill-opacity="0.7"/>
<polyline clip-path="url(#clip372)" style="stroke:#000000; stroke-width:4; stroke-opacity:0.7; fill:none" points="
  1515.68,1024.87 1515.68,1066.27 1558.44,1066.27 1558.44,1024.87 1515.68,1024.87 
  "/>
<path clip-path="url(#clip372)" d="
M1558.44 1055.92 L1558.44 1066.27 L1601.2 1066.27 L1601.2 1055.92 L1558.44 1055.92 L1558.44 1055.92  Z
  " fill="#009af9" fill-rule="evenodd" fill-opacity="0.7"/>
<polyline clip-path="url(#clip372)" style="stroke:#000000; stroke-width:4; stroke-opacity:0.7; fill:none" points="
  1558.44,1055.92 1558.44,1066.27 1601.2,1066.27 1601.2,1055.92 1558.44,1055.92 
  "/>
<path clip-path="url(#clip372)" d="
M1601.2 1055.92 L1601.2 1066.27 L1643.97 1066.27 L1643.97 1055.92 L1601.2 1055.92 L1601.2 1055.92  Z
  " fill="#009af9" fill-rule="evenodd" fill-opacity="0.7"/>
<polyline clip-path="url(#clip372)" style="stroke:#000000; stroke-width:4; stroke-opacity:0.7; fill:none" points="
  1601.2,1055.92 1601.2,1066.27 1643.97,1066.27 1643.97,1055.92 1601.2,1055.92 
  "/>
<path clip-path="url(#clip372)" d="
M1643.97 1055.92 L1643.97 1066.27 L1686.73 1066.27 L1686.73 1055.92 L1643.97 1055.92 L1643.97 1055.92  Z
  " fill="#009af9" fill-rule="evenodd" fill-opacity="0.7"/>
<polyline clip-path="url(#clip372)" style="stroke:#000000; stroke-width:4; stroke-opacity:0.7; fill:none" points="
  1643.97,1055.92 1643.97,1066.27 1686.73,1066.27 1686.73,1055.92 1643.97,1055.92 
  "/>
<path clip-path="url(#clip372)" d="
M403.881 1055.92 L403.881 1066.27 L446.643 1066.27 L446.643 1055.92 L403.881 1055.92 L403.881 1055.92  Z
  " fill="#e26f46" fill-rule="evenodd" fill-opacity="0.7"/>
<polyline clip-path="url(#clip372)" style="stroke:#000000; stroke-width:4; stroke-opacity:0.7; fill:none" points="
  403.881,1055.92 403.881,1066.27 446.643,1066.27 446.643,1055.92 403.881,1055.92 
  "/>
<path clip-path="url(#clip372)" d="
M446.643 1035.22 L446.643 1066.27 L489.404 1066.27 L489.404 1035.22 L446.643 1035.22 L446.643 1035.22  Z
  " fill="#e26f46" fill-rule="evenodd" fill-opacity="0.7"/>
<polyline clip-path="url(#clip372)" style="stroke:#000000; stroke-width:4; stroke-opacity:0.7; fill:none" points="
  446.643,1035.22 446.643,1066.27 489.404,1066.27 489.404,1035.22 446.643,1035.22 
  "/>
<path clip-path="url(#clip372)" d="
M489.404 1024.87 L489.404 1066.27 L532.166 1066.27 L532.166 1024.87 L489.404 1024.87 L489.404 1024.87  Z
  " fill="#e26f46" fill-rule="evenodd" fill-opacity="0.7"/>
<polyline clip-path="url(#clip372)" style="stroke:#000000; stroke-width:4; stroke-opacity:0.7; fill:none" points="
  489.404,1024.87 489.404,1066.27 532.166,1066.27 532.166,1024.87 489.404,1024.87 
  "/>
<path clip-path="url(#clip372)" d="
M532.166 1045.57 L532.166 1066.27 L574.927 1066.27 L574.927 1045.57 L532.166 1045.57 L532.166 1045.57  Z
  " fill="#e26f46" fill-rule="evenodd" fill-opacity="0.7"/>
<polyline clip-path="url(#clip372)" style="stroke:#000000; stroke-width:4; stroke-opacity:0.7; fill:none" points="
  532.166,1045.57 532.166,1066.27 574.927,1066.27 574.927,1045.57 532.166,1045.57 
  "/>
<path clip-path="url(#clip372)" d="
M574.927 993.813 L574.927 1066.27 L617.689 1066.27 L617.689 993.813 L574.927 993.813 L574.927 993.813  Z
  " fill="#e26f46" fill-rule="evenodd" fill-opacity="0.7"/>
<polyline clip-path="url(#clip372)" style="stroke:#000000; stroke-width:4; stroke-opacity:0.7; fill:none" points="
  574.927,993.813 574.927,1066.27 617.689,1066.27 617.689,993.813 574.927,993.813 
  "/>
<path clip-path="url(#clip372)" d="
M617.689 900.657 L617.689 1066.27 L660.45 1066.27 L660.45 900.657 L617.689 900.657 L617.689 900.657  Z
  " fill="#e26f46" fill-rule="evenodd" fill-opacity="0.7"/>
<polyline clip-path="url(#clip372)" style="stroke:#000000; stroke-width:4; stroke-opacity:0.7; fill:none" points="
  617.689,900.657 617.689,1066.27 660.45,1066.27 660.45,900.657 617.689,900.657 
  "/>
<path clip-path="url(#clip372)" d="
M660.45 797.151 L660.45 1066.27 L703.212 1066.27 L703.212 797.151 L660.45 797.151 L660.45 797.151  Z
  " fill="#e26f46" fill-rule="evenodd" fill-opacity="0.7"/>
<polyline clip-path="url(#clip372)" style="stroke:#000000; stroke-width:4; stroke-opacity:0.7; fill:none" points="
  660.45,797.151 660.45,1066.27 703.212,1066.27 703.212,797.151 660.45,797.151 
  "/>
<path clip-path="url(#clip372)" d="
M703.212 610.839 L703.212 1066.27 L745.974 1066.27 L745.974 610.839 L703.212 610.839 L703.212 610.839  Z
  " fill="#e26f46" fill-rule="evenodd" fill-opacity="0.7"/>
<polyline clip-path="url(#clip372)" style="stroke:#000000; stroke-width:4; stroke-opacity:0.7; fill:none" points="
  703.212,610.839 703.212,1066.27 745.974,1066.27 745.974,610.839 703.212,610.839 
  "/>
<path clip-path="url(#clip372)" d="
M745.974 662.593 L745.974 1066.27 L788.735 1066.27 L788.735 662.593 L745.974 662.593 L745.974 662.593  Z
  " fill="#e26f46" fill-rule="evenodd" fill-opacity="0.7"/>
<polyline clip-path="url(#clip372)" style="stroke:#000000; stroke-width:4; stroke-opacity:0.7; fill:none" points="
  745.974,662.593 745.974,1066.27 788.735,1066.27 788.735,662.593 745.974,662.593 
  "/>
<path clip-path="url(#clip372)" d="
M788.735 455.58 L788.735 1066.27 L831.497 1066.27 L831.497 455.58 L788.735 455.58 L788.735 455.58  Z
  " fill="#e26f46" fill-rule="evenodd" fill-opacity="0.7"/>
<polyline clip-path="url(#clip372)" style="stroke:#000000; stroke-width:4; stroke-opacity:0.7; fill:none" points="
  788.735,455.58 788.735,1066.27 831.497,1066.27 831.497,455.58 788.735,455.58 
  "/>
<path clip-path="url(#clip372)" d="
M831.497 486.632 L831.497 1066.27 L874.258 1066.27 L874.258 486.632 L831.497 486.632 L831.497 486.632  Z
  " fill="#e26f46" fill-rule="evenodd" fill-opacity="0.7"/>
<polyline clip-path="url(#clip372)" style="stroke:#000000; stroke-width:4; stroke-opacity:0.7; fill:none" points="
  831.497,486.632 831.497,1066.27 874.258,1066.27 874.258,486.632 831.497,486.632 
  "/>
<path clip-path="url(#clip372)" d="
M874.258 393.476 L874.258 1066.27 L917.02 1066.27 L917.02 393.476 L874.258 393.476 L874.258 393.476  Z
  " fill="#e26f46" fill-rule="evenodd" fill-opacity="0.7"/>
<polyline clip-path="url(#clip372)" style="stroke:#000000; stroke-width:4; stroke-opacity:0.7; fill:none" points="
  874.258,393.476 874.258,1066.27 917.02,1066.27 917.02,393.476 874.258,393.476 
  "/>
<path clip-path="url(#clip372)" d="
M917.02 155.411 L917.02 1066.27 L959.781 1066.27 L959.781 155.411 L917.02 155.411 L917.02 155.411  Z
  " fill="#e26f46" fill-rule="evenodd" fill-opacity="0.7"/>
<polyline clip-path="url(#clip372)" style="stroke:#000000; stroke-width:4; stroke-opacity:0.7; fill:none" points="
  917.02,155.411 917.02,1066.27 959.781,1066.27 959.781,155.411 917.02,155.411 
  "/>
<path clip-path="url(#clip372)" d="
M959.781 331.372 L959.781 1066.27 L1002.54 1066.27 L1002.54 331.372 L959.781 331.372 L959.781 331.372  Z
  " fill="#e26f46" fill-rule="evenodd" fill-opacity="0.7"/>
<polyline clip-path="url(#clip372)" style="stroke:#000000; stroke-width:4; stroke-opacity:0.7; fill:none" points="
  959.781,331.372 959.781,1066.27 1002.54,1066.27 1002.54,331.372 959.781,331.372 
  "/>
<path clip-path="url(#clip372)" d="
M1002.54 258.917 L1002.54 1066.27 L1045.3 1066.27 L1045.3 258.917 L1002.54 258.917 L1002.54 258.917  Z
  " fill="#e26f46" fill-rule="evenodd" fill-opacity="0.7"/>
<polyline clip-path="url(#clip372)" style="stroke:#000000; stroke-width:4; stroke-opacity:0.7; fill:none" points="
  1002.54,258.917 1002.54,1066.27 1045.3,1066.27 1045.3,258.917 1002.54,258.917 
  "/>
<path clip-path="url(#clip372)" d="
M1045.3 227.865 L1045.3 1066.27 L1088.07 1066.27 L1088.07 227.865 L1045.3 227.865 L1045.3 227.865  Z
  " fill="#e26f46" fill-rule="evenodd" fill-opacity="0.7"/>
<polyline clip-path="url(#clip372)" style="stroke:#000000; stroke-width:4; stroke-opacity:0.7; fill:none" points="
  1045.3,227.865 1045.3,1066.27 1088.07,1066.27 1088.07,227.865 1045.3,227.865 
  "/>
<path clip-path="url(#clip372)" d="
M1088.07 310.671 L1088.07 1066.27 L1130.83 1066.27 L1130.83 310.671 L1088.07 310.671 L1088.07 310.671  Z
  " fill="#e26f46" fill-rule="evenodd" fill-opacity="0.7"/>
<polyline clip-path="url(#clip372)" style="stroke:#000000; stroke-width:4; stroke-opacity:0.7; fill:none" points="
  1088.07,310.671 1088.07,1066.27 1130.83,1066.27 1130.83,310.671 1088.07,310.671 
  "/>
<path clip-path="url(#clip372)" d="
M1130.83 465.93 L1130.83 1066.27 L1173.59 1066.27 L1173.59 465.93 L1130.83 465.93 L1130.83 465.93  Z
  " fill="#e26f46" fill-rule="evenodd" fill-opacity="0.7"/>
<polyline clip-path="url(#clip372)" style="stroke:#000000; stroke-width:4; stroke-opacity:0.7; fill:none" points="
  1130.83,465.93 1130.83,1066.27 1173.59,1066.27 1173.59,465.93 1130.83,465.93 
  "/>
<path clip-path="url(#clip372)" d="
M1173.59 548.735 L1173.59 1066.27 L1216.35 1066.27 L1216.35 548.735 L1173.59 548.735 L1173.59 548.735  Z
  " fill="#e26f46" fill-rule="evenodd" fill-opacity="0.7"/>
<polyline clip-path="url(#clip372)" style="stroke:#000000; stroke-width:4; stroke-opacity:0.7; fill:none" points="
  1173.59,548.735 1173.59,1066.27 1216.35,1066.27 1216.35,548.735 1173.59,548.735 
  "/>
<path clip-path="url(#clip372)" d="
M1216.35 610.839 L1216.35 1066.27 L1259.11 1066.27 L1259.11 610.839 L1216.35 610.839 L1216.35 610.839  Z
  " fill="#e26f46" fill-rule="evenodd" fill-opacity="0.7"/>
<polyline clip-path="url(#clip372)" style="stroke:#000000; stroke-width:4; stroke-opacity:0.7; fill:none" points="
  1216.35,610.839 1216.35,1066.27 1259.11,1066.27 1259.11,610.839 1216.35,610.839 
  "/>
<path clip-path="url(#clip372)" d="
M1259.11 735.047 L1259.11 1066.27 L1301.87 1066.27 L1301.87 735.047 L1259.11 735.047 L1259.11 735.047  Z
  " fill="#e26f46" fill-rule="evenodd" fill-opacity="0.7"/>
<polyline clip-path="url(#clip372)" style="stroke:#000000; stroke-width:4; stroke-opacity:0.7; fill:none" points="
  1259.11,735.047 1259.11,1066.27 1301.87,1066.27 1301.87,735.047 1259.11,735.047 
  "/>
<path clip-path="url(#clip372)" d="
M1301.87 797.151 L1301.87 1066.27 L1344.64 1066.27 L1344.64 797.151 L1301.87 797.151 L1301.87 797.151  Z
  " fill="#e26f46" fill-rule="evenodd" fill-opacity="0.7"/>
<polyline clip-path="url(#clip372)" style="stroke:#000000; stroke-width:4; stroke-opacity:0.7; fill:none" points="
  1301.87,797.151 1301.87,1066.27 1344.64,1066.27 1344.64,797.151 1301.87,797.151 
  "/>
<path clip-path="url(#clip372)" d="
M1344.64 848.904 L1344.64 1066.27 L1387.4 1066.27 L1387.4 848.904 L1344.64 848.904 L1344.64 848.904  Z
  " fill="#e26f46" fill-rule="evenodd" fill-opacity="0.7"/>
<polyline clip-path="url(#clip372)" style="stroke:#000000; stroke-width:4; stroke-opacity:0.7; fill:none" points="
  1344.64,848.904 1344.64,1066.27 1387.4,1066.27 1387.4,848.904 1344.64,848.904 
  "/>
<path clip-path="url(#clip372)" d="
M1387.4 900.657 L1387.4 1066.27 L1430.16 1066.27 L1430.16 900.657 L1387.4 900.657 L1387.4 900.657  Z
  " fill="#e26f46" fill-rule="evenodd" fill-opacity="0.7"/>
<polyline clip-path="url(#clip372)" style="stroke:#000000; stroke-width:4; stroke-opacity:0.7; fill:none" points="
  1387.4,900.657 1387.4,1066.27 1430.16,1066.27 1430.16,900.657 1387.4,900.657 
  "/>
<path clip-path="url(#clip372)" d="
M1430.16 993.813 L1430.16 1066.27 L1472.92 1066.27 L1472.92 993.813 L1430.16 993.813 L1430.16 993.813  Z
  " fill="#e26f46" fill-rule="evenodd" fill-opacity="0.7"/>
<polyline clip-path="url(#clip372)" style="stroke:#000000; stroke-width:4; stroke-opacity:0.7; fill:none" points="
  1430.16,993.813 1430.16,1066.27 1472.92,1066.27 1472.92,993.813 1430.16,993.813 
  "/>
<path clip-path="url(#clip372)" d="
M1472.92 931.709 L1472.92 1066.27 L1515.68 1066.27 L1515.68 931.709 L1472.92 931.709 L1472.92 931.709  Z
  " fill="#e26f46" fill-rule="evenodd" fill-opacity="0.7"/>
<polyline clip-path="url(#clip372)" style="stroke:#000000; stroke-width:4; stroke-opacity:0.7; fill:none" points="
  1472.92,931.709 1472.92,1066.27 1515.68,1066.27 1515.68,931.709 1472.92,931.709 
  "/>
<path clip-path="url(#clip372)" d="
M1515.68 1035.22 L1515.68 1066.27 L1558.44 1066.27 L1558.44 1035.22 L1515.68 1035.22 L1515.68 1035.22  Z
  " fill="#e26f46" fill-rule="evenodd" fill-opacity="0.7"/>
<polyline clip-path="url(#clip372)" style="stroke:#000000; stroke-width:4; stroke-opacity:0.7; fill:none" points="
  1515.68,1035.22 1515.68,1066.27 1558.44,1066.27 1558.44,1035.22 1515.68,1035.22 
  "/>
<path clip-path="url(#clip372)" d="
M1558.44 1014.51 L1558.44 1066.27 L1601.2 1066.27 L1601.2 1014.51 L1558.44 1014.51 L1558.44 1014.51  Z
  " fill="#e26f46" fill-rule="evenodd" fill-opacity="0.7"/>
<polyline clip-path="url(#clip372)" style="stroke:#000000; stroke-width:4; stroke-opacity:0.7; fill:none" points="
  1558.44,1014.51 1558.44,1066.27 1601.2,1066.27 1601.2,1014.51 1558.44,1014.51 
  "/>
<path clip-path="url(#clip372)" d="
M1601.2 993.813 L1601.2 1066.27 L1643.97 1066.27 L1643.97 993.813 L1601.2 993.813 L1601.2 993.813  Z
  " fill="#e26f46" fill-rule="evenodd" fill-opacity="0.7"/>
<polyline clip-path="url(#clip372)" style="stroke:#000000; stroke-width:4; stroke-opacity:0.7; fill:none" points="
  1601.2,993.813 1601.2,1066.27 1643.97,1066.27 1643.97,993.813 1601.2,993.813 
  "/>
<path clip-path="url(#clip372)" d="
M1643.97 1066.27 L1643.97 1066.27 L1686.73 1066.27 L1686.73 1066.27 L1643.97 1066.27 L1643.97 1066.27  Z
  " fill="#e26f46" fill-rule="evenodd" fill-opacity="0.7"/>
<polyline clip-path="url(#clip372)" style="stroke:#000000; stroke-width:4; stroke-opacity:0.7; fill:none" points="
  1643.97,1066.27 1643.97,1066.27 1686.73,1066.27 1643.97,1066.27 
  "/>
<path clip-path="url(#clip372)" d="
M1686.73 1055.92 L1686.73 1066.27 L1729.49 1066.27 L1729.49 1055.92 L1686.73 1055.92 L1686.73 1055.92  Z
  " fill="#e26f46" fill-rule="evenodd" fill-opacity="0.7"/>
<polyline clip-path="url(#clip372)" style="stroke:#000000; stroke-width:4; stroke-opacity:0.7; fill:none" points="
  1686.73,1055.92 1686.73,1066.27 1729.49,1066.27 1729.49,1055.92 1686.73,1055.92 
  "/>
<path clip-path="url(#clip372)" d="
M1729.49 1035.22 L1729.49 1066.27 L1772.25 1066.27 L1772.25 1035.22 L1729.49 1035.22 L1729.49 1035.22  Z
  " fill="#e26f46" fill-rule="evenodd" fill-opacity="0.7"/>
<polyline clip-path="url(#clip372)" style="stroke:#000000; stroke-width:4; stroke-opacity:0.7; fill:none" points="
  1729.49,1035.22 1729.49,1066.27 1772.25,1066.27 1772.25,1035.22 1729.49,1035.22 
  "/>
<path clip-path="url(#clip372)" d="
M1772.25 1066.27 L1772.25 1066.27 L1815.01 1066.27 L1815.01 1066.27 L1772.25 1066.27 L1772.25 1066.27  Z
  " fill="#e26f46" fill-rule="evenodd" fill-opacity="0.7"/>
<polyline clip-path="url(#clip372)" style="stroke:#000000; stroke-width:4; stroke-opacity:0.7; fill:none" points="
  1772.25,1066.27 1772.25,1066.27 1815.01,1066.27 1772.25,1066.27 
  "/>
<path clip-path="url(#clip372)" d="
M1815.01 1055.92 L1815.01 1066.27 L1857.77 1066.27 L1857.77 1055.92 L1815.01 1055.92 L1815.01 1055.92  Z
  " fill="#e26f46" fill-rule="evenodd" fill-opacity="0.7"/>
<polyline clip-path="url(#clip372)" style="stroke:#000000; stroke-width:4; stroke-opacity:0.7; fill:none" points="
  1815.01,1055.92 1815.01,1066.27 1857.77,1066.27 1857.77,1055.92 1815.01,1055.92 
  "/>
<path clip-path="url(#clip370)" d="
M1515.72 331.413 L1892.26 331.413 L1892.26 149.973 L1515.72 149.973  Z
  " fill="#ffffff" fill-rule="evenodd" fill-opacity="1"/>
<polyline clip-path="url(#clip370)" style="stroke:#000000; stroke-width:4; stroke-opacity:1; fill:none" points="
  1515.72,331.413 1892.26,331.413 1892.26,149.973 1515.72,149.973 1515.72,331.413 
  "/>
<path clip-path="url(#clip370)" d="
M1535.89 234.645 L1656.88 234.645 L1656.88 186.261 L1535.89 186.261 L1535.89 234.645  Z
  " fill="#009af9" fill-rule="evenodd" fill-opacity="0.7"/>
<polyline clip-path="url(#clip370)" style="stroke:#000000; stroke-width:4; stroke-opacity:1; fill:none" points="
  1535.89,234.645 1656.88,234.645 1656.88,186.261 1535.89,186.261 1535.89,234.645 
  "/>
<path clip-path="url(#clip370)" d="M 0 0 M1684.45 194.447 L1684.45 201.808 L1693.23 201.808 L1693.23 205.118 L1684.45 205.118 L1684.45 219.192 Q1684.45 222.363 1685.31 223.266 Q1686.19 224.169 1688.85 224.169 L1693.23 224.169 L1693.23 227.733 L1688.85 227.733 Q1683.92 227.733 1682.04 225.905 Q1680.17 224.053 1680.17 219.192 L1680.17 205.118 L1677.04 205.118 L1677.04 201.808 L1680.17 201.808 L1680.17 194.447 L1684.45 194.447 Z" fill="#000000" fill-rule="evenodd" fill-opacity="1" /><path clip-path="url(#clip370)" d="M 0 0 M1720.38 212.085 L1720.38 227.733 L1716.12 227.733 L1716.12 212.224 Q1716.12 208.544 1714.68 206.715 Q1713.25 204.886 1710.38 204.886 Q1706.93 204.886 1704.94 207.085 Q1702.95 209.284 1702.95 213.081 L1702.95 227.733 L1698.66 227.733 L1698.66 191.715 L1702.95 191.715 L1702.95 205.835 Q1704.48 203.497 1706.54 202.34 Q1708.62 201.183 1711.33 201.183 Q1715.79 201.183 1718.09 203.96 Q1720.38 206.715 1720.38 212.085 Z" fill="#000000" fill-rule="evenodd" fill-opacity="1" /><path clip-path="url(#clip370)" d="M 0 0 M1751.05 213.706 L1751.05 215.789 L1731.47 215.789 Q1731.74 220.187 1734.1 222.502 Q1736.49 224.794 1740.72 224.794 Q1743.18 224.794 1745.47 224.192 Q1747.79 223.59 1750.05 222.386 L1750.05 226.414 Q1747.76 227.386 1745.35 227.895 Q1742.95 228.405 1740.47 228.405 Q1734.27 228.405 1730.63 224.794 Q1727.02 221.183 1727.02 215.025 Q1727.02 208.659 1730.45 204.933 Q1733.9 201.183 1739.73 201.183 Q1744.96 201.183 1747.99 204.562 Q1751.05 207.919 1751.05 213.706 M1746.79 212.456 Q1746.74 208.96 1744.82 206.877 Q1742.92 204.794 1739.78 204.794 Q1736.21 204.794 1734.06 206.808 Q1731.93 208.822 1731.6 212.479 L1746.79 212.456 Z" fill="#000000" fill-rule="evenodd" fill-opacity="1" /><path clip-path="url(#clip370)" d="M 0 0 M1762.25 194.447 L1762.25 201.808 L1771.03 201.808 L1771.03 205.118 L1762.25 205.118 L1762.25 219.192 Q1762.25 222.363 1763.11 223.266 Q1763.99 224.169 1766.65 224.169 L1771.03 224.169 L1771.03 227.733 L1766.65 227.733 Q1761.72 227.733 1759.85 225.905 Q1757.97 224.053 1757.97 219.192 L1757.97 205.118 L1754.85 205.118 L1754.85 201.808 L1757.97 201.808 L1757.97 194.447 L1762.25 194.447 Z" fill="#000000" fill-rule="evenodd" fill-opacity="1" /><path clip-path="url(#clip370)" d="M 0 0 M1788.41 214.701 Q1783.25 214.701 1781.26 215.882 Q1779.27 217.062 1779.27 219.909 Q1779.27 222.178 1780.75 223.521 Q1782.25 224.84 1784.82 224.84 Q1788.36 224.84 1790.49 222.34 Q1792.65 219.817 1792.65 215.65 L1792.65 214.701 L1788.41 214.701 M1796.91 212.942 L1796.91 227.733 L1792.65 227.733 L1792.65 223.798 Q1791.19 226.159 1789.01 227.294 Q1786.84 228.405 1783.69 228.405 Q1779.71 228.405 1777.35 226.183 Q1775.01 223.937 1775.01 220.187 Q1775.01 215.812 1777.92 213.59 Q1780.86 211.368 1786.67 211.368 L1792.65 211.368 L1792.65 210.951 Q1792.65 208.011 1790.7 206.414 Q1788.78 204.794 1785.28 204.794 Q1783.06 204.794 1780.96 205.326 Q1778.85 205.859 1776.91 206.923 L1776.91 202.988 Q1779.24 202.085 1781.44 201.646 Q1783.64 201.183 1785.72 201.183 Q1791.35 201.183 1794.13 204.099 Q1796.91 207.016 1796.91 212.942 Z" fill="#000000" fill-rule="evenodd" fill-opacity="1" /><path clip-path="url(#clip370)" d="M 0 0 M1825.38 235.604 L1825.38 238.914 L1800.75 238.914 L1800.75 235.604 L1825.38 235.604 Z" fill="#000000" fill-rule="evenodd" fill-opacity="1" /><path clip-path="url(#clip370)" d="M 0 0 M1839.98 196.252 Q1836.37 196.252 1834.54 199.817 Q1832.74 203.359 1832.74 210.488 Q1832.74 217.595 1834.54 221.159 Q1836.37 224.701 1839.98 224.701 Q1843.62 224.701 1845.42 221.159 Q1847.25 217.595 1847.25 210.488 Q1847.25 203.359 1845.42 199.817 Q1843.62 196.252 1839.98 196.252 M1839.98 192.548 Q1845.79 192.548 1848.85 197.155 Q1851.93 201.738 1851.93 210.488 Q1851.93 219.215 1848.85 223.821 Q1845.79 228.405 1839.98 228.405 Q1834.17 228.405 1831.09 223.821 Q1828.04 219.215 1828.04 210.488 Q1828.04 201.738 1831.09 197.155 Q1834.17 192.548 1839.98 192.548 Z" fill="#000000" fill-rule="evenodd" fill-opacity="1" /><path clip-path="url(#clip370)" d="
M1535.89 295.125 L1656.88 295.125 L1656.88 246.741 L1535.89 246.741 L1535.89 295.125  Z
  " fill="#e26f46" fill-rule="evenodd" fill-opacity="0.7"/>
<polyline clip-path="url(#clip370)" style="stroke:#000000; stroke-width:4; stroke-opacity:1; fill:none" points="
  1535.89,295.125 1656.88,295.125 1656.88,246.741 1535.89,246.741 1535.89,295.125 
  "/>
<path clip-path="url(#clip370)" d="M 0 0 M1684.45 254.927 L1684.45 262.288 L1693.23 262.288 L1693.23 265.598 L1684.45 265.598 L1684.45 279.672 Q1684.45 282.843 1685.31 283.746 Q1686.19 284.649 1688.85 284.649 L1693.23 284.649 L1693.23 288.213 L1688.85 288.213 Q1683.92 288.213 1682.04 286.385 Q1680.17 284.533 1680.17 279.672 L1680.17 265.598 L1677.04 265.598 L1677.04 262.288 L1680.17 262.288 L1680.17 254.927 L1684.45 254.927 Z" fill="#000000" fill-rule="evenodd" fill-opacity="1" /><path clip-path="url(#clip370)" d="M 0 0 M1720.38 272.565 L1720.38 288.213 L1716.12 288.213 L1716.12 272.704 Q1716.12 269.024 1714.68 267.195 Q1713.25 265.366 1710.38 265.366 Q1706.93 265.366 1704.94 267.565 Q1702.95 269.764 1702.95 273.561 L1702.95 288.213 L1698.66 288.213 L1698.66 252.195 L1702.95 252.195 L1702.95 266.315 Q1704.48 263.977 1706.54 262.82 Q1708.62 261.663 1711.33 261.663 Q1715.79 261.663 1718.09 264.44 Q1720.38 267.195 1720.38 272.565 Z" fill="#000000" fill-rule="evenodd" fill-opacity="1" /><path clip-path="url(#clip370)" d="M 0 0 M1751.05 274.186 L1751.05 276.269 L1731.47 276.269 Q1731.74 280.667 1734.1 282.982 Q1736.49 285.274 1740.72 285.274 Q1743.18 285.274 1745.47 284.672 Q1747.79 284.07 1750.05 282.866 L1750.05 286.894 Q1747.76 287.866 1745.35 288.375 Q1742.95 288.885 1740.47 288.885 Q1734.27 288.885 1730.63 285.274 Q1727.02 281.663 1727.02 275.505 Q1727.02 269.139 1730.45 265.413 Q1733.9 261.663 1739.73 261.663 Q1744.96 261.663 1747.99 265.042 Q1751.05 268.399 1751.05 274.186 M1746.79 272.936 Q1746.74 269.44 1744.82 267.357 Q1742.92 265.274 1739.78 265.274 Q1736.21 265.274 1734.06 267.288 Q1731.93 269.302 1731.6 272.959 L1746.79 272.936 Z" fill="#000000" fill-rule="evenodd" fill-opacity="1" /><path clip-path="url(#clip370)" d="M 0 0 M1762.25 254.927 L1762.25 262.288 L1771.03 262.288 L1771.03 265.598 L1762.25 265.598 L1762.25 279.672 Q1762.25 282.843 1763.11 283.746 Q1763.99 284.649 1766.65 284.649 L1771.03 284.649 L1771.03 288.213 L1766.65 288.213 Q1761.72 288.213 1759.85 286.385 Q1757.97 284.533 1757.97 279.672 L1757.97 265.598 L1754.85 265.598 L1754.85 262.288 L1757.97 262.288 L1757.97 254.927 L1762.25 254.927 Z" fill="#000000" fill-rule="evenodd" fill-opacity="1" /><path clip-path="url(#clip370)" d="M 0 0 M1788.41 275.181 Q1783.25 275.181 1781.26 276.362 Q1779.27 277.542 1779.27 280.389 Q1779.27 282.658 1780.75 284.001 Q1782.25 285.32 1784.82 285.32 Q1788.36 285.32 1790.49 282.82 Q1792.65 280.297 1792.65 276.13 L1792.65 275.181 L1788.41 275.181 M1796.91 273.422 L1796.91 288.213 L1792.65 288.213 L1792.65 284.278 Q1791.19 286.639 1789.01 287.774 Q1786.84 288.885 1783.69 288.885 Q1779.71 288.885 1777.35 286.663 Q1775.01 284.417 1775.01 280.667 Q1775.01 276.292 1777.92 274.07 Q1780.86 271.848 1786.67 271.848 L1792.65 271.848 L1792.65 271.431 Q1792.65 268.491 1790.7 266.894 Q1788.78 265.274 1785.28 265.274 Q1783.06 265.274 1780.96 265.806 Q1778.85 266.339 1776.91 267.403 L1776.91 263.468 Q1779.24 262.565 1781.44 262.126 Q1783.64 261.663 1785.72 261.663 Q1791.35 261.663 1794.13 264.579 Q1796.91 267.496 1796.91 273.422 Z" fill="#000000" fill-rule="evenodd" fill-opacity="1" /><path clip-path="url(#clip370)" d="M 0 0 M1825.38 296.084 L1825.38 299.394 L1800.75 299.394 L1800.75 296.084 L1825.38 296.084 Z" fill="#000000" fill-rule="evenodd" fill-opacity="1" /><path clip-path="url(#clip370)" d="M 0 0 M1830.79 284.278 L1838.43 284.278 L1838.43 257.913 L1830.12 259.579 L1830.12 255.32 L1838.39 253.653 L1843.06 253.653 L1843.06 284.278 L1850.7 284.278 L1850.7 288.213 L1830.79 288.213 L1830.79 284.278 Z" fill="#000000" fill-rule="evenodd" fill-opacity="1" /></svg>
